<?xml version="1.0" encoding="UTF-8"?>
<svg width="700pt" height="700pt" fill='#8d99ae' version="1.1" viewBox="50 50 600 400" xmlns="http://www.w3.org/2000/svg" xmlns:xlink="http://www.w3.org/1999/xlink">
 <g>
  <path d="m359.61 66.336c-0.38672 0.15625-1.3164 1.2422-2.0625 2.4062l-1.3945 2.1328 0.15234-2.0625c0.085937-1.0938 0.042968-2.0234-0.078126-2.0234-1.6289 0-7.0234 1.3594-8.1094 2.0234-0.77734 0.46484-2.1797 1.0469-3.1875 1.3164-1.4727 0.38672-1.7461 0.58203-1.6289 1.3203 0.035157 0.50391 0.38672 1.125 0.77344 1.3984 0.54688 0.42578 0.15234 0.46484-2.4141 0.26953l-3.0547-0.17578 0.19531 1.9805c0.19531 1.8633 0.15625 2.0234-0.62891 1.9023-0.61719-0.078125-0.77344 0.078125-0.69531 0.66016 0.27344 1.7539 0.27344 4.0391 0 4.2734-0.15625 0.15234-1.0117-0.35156-1.8984-1.125-2.0625-1.7461-2.6758-1.7852-2.4805-0.23437 0.11719 0.85156-0.085937 1.3164-0.62891 1.668-1.0859 0.66016-0.89453 1.3203 0.42969 1.6367 1.2422 0.26953 1.4336 0.54297 0.73437 1.2422-0.26953 0.26953-0.85547 0.26953-1.8633 0.039063-1.3164-0.35156-1.5898-0.27344-2.4805 0.54297-0.54297 0.54688-1.8242 1.3594-2.8008 1.8633-1.0078 0.50391-1.9766 1.2812-2.2109 1.707-0.24219 0.46484-0.26953 0.69922-0.11719 0.50391 0.19531-0.15234 0.54297 0.23438 0.81641 0.89453 0.30859 0.66016 0.69922 1.0859 1.0078 0.96875 0.26953-0.078125 0.89062 0.15625 1.3945 0.54297 0.74609 0.66016 0.81641 0.89453 0.46484 1.8242-0.58203 1.4727-0.23047 2.1016 1.1719 2.1016 1.5898 0 3.8398-0.97266 5.2031-2.25l1.082-1.0547-0.58203 1.2031c-0.42578 0.77344-1.3555 1.5898-2.8008 2.2891-1.1641 0.62109-2.1328 1.2812-2.1328 1.5117 0 0.46875 2.4883 2.5664 3.0625 2.5664 0.20312 0 0.46484-0.69922 0.62891-1.5586 0.15234-0.85156 0.42578-1.5508 0.66016-1.5508 0.23047 0 0.27344 0.58203 0.11719 1.5508-0.23438 1.4375-0.19531 1.5586 0.66016 1.5586 0.46484 0 1.5508 0.11719 2.3242 0.23047 1.332 0.23437 1.4766 0.15625 1.6758-0.73828 0.23438-0.89062 0.35156-0.96484 1.2031-0.58203 0.81641 0.38672 1.125 0.23438 2.957-1.5195 2.3281-2.1719 4.1094-3.4141 4.4258-3.1016 0.58203 0.58203-2.0938 4.4297-4.2344 6.0195-1.7852 1.3555-2.1328 1.8203-1.8203 2.2461 0.27344 0.26953 0.30859 0.73828 0.15234 0.97266-0.15234 0.26953-0.11719 0.34766 0.11719 0.23438 0.46484-0.3125 2.5195 1.8633 3.4141 3.6133 0.93359 1.7812 0.078125 1.3984-2.918-1.3594-2.7148-2.4883-4.1562-3.1484-6.25-2.832-1.8203 0.23438-1.2812 3.4141 1.082 6.2109 2.1055 2.4805 3.6172 5.0117 3.6172 5.9805 0 0.89062 0.11719 0.92969 4.1875 1.3945 0.77344 0.11719 0.81641 0.19531 0.38672 0.81641-0.42188 0.54297-1.1641 0.69922-3.9648 0.77344-3.2578 0.11719-3.4961 0.15625-4.3125 1.2031-1.0469 1.3203-1.7461 3.4961-1.7461 5.4727 0 1.4375 0 1.4766 1.3594 1.2422 1.0859-0.19531 1.3594-0.078124 1.5586 0.54297 0.30859 0.93359 0.85156 0.93359 1.4336-0.039062 0.58203-0.89062 1.0938-1.0078 1.0938-0.19141 0 0.26953 0.19531 1.3984 0.42188 2.4805 0.35156 1.668 0.58203 1.9805 1.6289 2.3672 1.1367 0.39062 1.3281 0.3125 2.1406-0.62109 0.50391-0.53906 0.96875-0.92969 1.0859-0.81641 0.34766 0.35156-0.97266 2.5664-1.7461 2.9922-1.4336 0.73438-2.3359 0.38672-4.5742-1.8633-1.7852-1.7852-2.4531-2.2109-3.3086-2.0938-1.8594 0.23047-1.8945 3.7305-0.039063 5.3125l0.89453 0.81641-1.9766 2.1016c-1.0469 1.125-2.0625 2.5664-2.1797 3.1875-0.11328 0.62109-0.38672 0.96875-0.66016 0.8125-0.23438-0.11719-0.23438 0 0.078125 0.3125 0.23438 0.26953 0.46875 0.96875 0.46875 1.5508 0 0.89453 0.30859 1.1641 2.1719 1.9023l2.1328 0.89062 1.0938-1.0547c0.92969-0.89062 1.1992-0.96875 2.1719-0.62109 0.58203 0.23438 1.5586 0.73828 2.1289 1.1641 1.125 0.81641 1.9492 0.46484 1.9492-0.81641 0-0.85156 1.0078-1.668 1.5898-1.2812 0.26172 0.15625 0.34766 0.11719 0.19141-0.15234-0.46094-0.73828 1.3203-0.96875 2.3359-0.27344 0.54297 0.35156 1.0469 0.58203 1.0859 0.50391 0.035156-0.078125 0.27344-0.58203 0.50391-1.1328 0.3125-0.69922 0.81641-1.0859 1.6406-1.1992 1.2773-0.19531 1.3086-0.15625 1.3477 2.0234 0.039063 1.082 0.19531 1.3945 0.85156 1.4727 0.66016 0.078125 1.4375-0.66016 3.4492-3.2188l2.6445-3.375-0.46094-1.5195c-0.27344-0.85156-0.39062-1.668-0.27344-1.8633 0.46484-0.73828-1.3984-0.078125-1.9414 0.69922-0.8125 1.125-1.707 0.42578-1.707-1.3594 0-1.5195 0.035156-1.5195-2.4922-0.73438-2.75 0.85156-3.1758 0.73438-3.6836-0.62109-0.65625-1.9023-0.50781-2.1328 0.66016-1.0117 1.3594 1.2812 2.1719 1.3203 4.5039 0.078125 1.0195-0.54297 1.9805-0.89453 2.1836-0.77734 0.73438 0.42578 0.73438-1.3203 0.035156-3.2969-0.8125-2.3672-0.65625-2.8789 1.0547-3.2266 2.4883-0.50391 4.0039-2.9102 1.8633-3.0312-0.61719-0.039063-0.65625-0.078125-0.11719-0.23438 0.85547-0.23438 0.89453-2.1797 0.042968-3.0312-0.58203-0.58203-0.58203-0.66016 0-1.3203 0.65625-0.73828 0.85156-2.5664 0.27344-2.9102-0.19531-0.15625-1.2031-0.35156-2.2617-0.50391-1.7031-0.19531-2.4023-0.62109-2.4375-1.3594 0-0.15625 0.77734-0.38672 1.7422-0.54297 1.7539-0.23438 4.0039-1.5195 2.8828-1.6367-0.3125-0.039062-1.0117-0.15625-1.5898-0.30859-0.63281-0.089844-1.8359 0.0625-2.8867 0.41406-1.6641 0.58203-1.7422 0.54297-1.2773-0.078125 0.77344-0.93359 1.7422-1.668 3.8008-2.8008 1.5977-0.89062 1.7852-1.125 1.6758-2.25-0.078125-1.125 0-1.2422 1.0547-1.2422 1.1602 0 2.0938-0.77734 2.1719-1.8633 0.039062-0.38672 0.19531-1.2422 0.35156-1.9414 0.30859-1.3555 0-1.5508-1.3672-0.85156-0.96875 0.54297-0.93359 0.30859 0.19531-2.1016 1.3164-2.793 2.8711-7.8047 3.7617-12 0.93359-4.5039 0.93359-4.9336 0-4.9336-1.2383 0-3.0234 1.8242-3.7617 3.8086-0.81641 2.1797-1.1328 2.6055-1.7148 2.2188-0.27344-0.19531-0.11719-0.66016 0.50781-1.4766 0.50391-0.69922 1.1602-1.668 1.4336-2.1719 0.46094-0.89453 0.42969-0.93359-0.73438-0.69922-1.0938 0.23437-1.1719 0.15625-0.85156-0.42578 0.19141-0.34766 1.2422-1.4766 2.3203-2.4883 2.418-2.25 2.9961-4.0391 2.5312-7.6484-0.35156-2.4453-0.38672-2.4883-1.8711-3.0312-0.83984-0.27344-1.8594-0.85547-2.2461-1.2812-0.78125-0.8125-0.92578-0.85156-1.9414-0.46875z"/>
  <path d="m320.75 93.48c0.11719 0.38672 0.38672 0.93359 0.62109 1.1641 0.54297 0.69922-0.039063 2.6758-0.62109 2.1016-0.23438-0.23438-0.81641-0.42578-1.3164-0.42578-1.2812 0-1.25 1.9375 0.035156 2.9102 0.89453 0.65625 1.0117 2.0156 0.11719 1.4766-0.19531-0.11719-0.26953-0.039062-0.15234 0.19531 0.15234 0.19531-0.35156 1.125-1.0859 2.0156-0.73438 0.89453-1.3594 1.8594-1.3594 2.1328 0 0.3125 0.62891 0.85547 1.3594 1.2031 0.77734 0.35156 1.4766 0.8125 1.5898 1.0078 0.42578 0.69922-0.15625 0.73828-1.3594 0.15234-0.61719-0.35156-1.2383-0.62109-1.3984-0.62109-0.11719 0-0.19531 0.77734-0.19531 1.7539 0 1.2383 0.23438 1.9766 0.78516 2.5273 0.50391 0.50391 0.77344 1.2812 0.77344 2.2188 0 3.1016 0.81641 3.9922 1.8242 2.0156 0.42578-0.77734 0.66016-0.77734 0.58203 0.039062-0.046874 0.53906 1.6992 0.14844 2.1641-0.47656 0.74609-1.0078 1.1328-0.85156 1.3984 0.54297 0.26953 1.3984-0.15625 1.8633-1.793 1.8633-1.3164 0-1.707 1.0547-1.0469 3.0312 0.58203 1.9023 0.96875 2.2891 2.2969 2.5977 0.96875 0.23438 1.0859 0.35156 0.69922 0.93359-0.8125 1.3203 0.62109 2.9102 3.0352 3.3359 0.88672 0.19531 1.3984-0.035156 2.4805-0.96875 1.2422-1.0859 1.3594-1.1328 1.4766-0.38672 0.15625 0.96875 1.25 1.0469 1.25 0.078126 0.035156-0.97266 1.3203-3.6523 2.9062-6.0977 1.0117-1.5117 1.5977-2.0156 2.0273-1.8633 0.5 0.19141 0.58203 0.078125 0.38672-0.42969-0.15625-0.34766 0-1.1641 0.30859-1.7812 0.81641-1.5586 0.73828-2.9531-0.19531-3.8789-0.85156-0.85156-2.9102-1.0547-3.2578-0.30859-0.11719 0.26953-0.19531-0.58203-0.15625-1.9023 0.035157-1.668-0.11328-2.6445-0.54297-3.1016-0.30859-0.39062-0.69531-1.3984-0.8125-2.2188-0.27344-1.668-0.73828-2.1719-2.1797-2.1719-0.66016 0-0.85547 0.15234-0.66016 0.61719 0.54297 1.4375 0.66016 2.4062 0.3125 2.6445-0.23438 0.11719-0.58203-0.27344-0.77344-0.93359-0.35156-0.89062-4.4297-7.9961-6.1758-10.754-0.19531-0.23438-1.0547-0.54297-1.9805-0.69922-1.4844-0.23828-1.6016-0.19922-1.3672 0.46094z"/>
  <path d="m299.39 114.49c-0.38672 0.38672-0.66016 0.93359-0.66016 1.2031 0 0.85156 1.2422 2.6836 1.9414 2.8711 0.34766 0.078125 0.77344 0.66016 0.89062 1.2812 0.11719 0.62109 0.35156 1.4375 0.46484 1.7852 0.23437 0.58203 0.078124 0.61719-1.0859 0.42578-1.1992-0.19531-1.3555-0.078126-1.5898 0.8125-0.15625 0.58203-0.15625 1.2031-0.039062 1.3984 0.3125 0.50391 2.832 1.1641 4.5078 1.1641 1.7031 0 2.2891 0.62109 3.5664 3.6914 0.77734 1.8984 1.1719 2.3281 1.8633 2.3281 0.73438 0 0.96875-0.26953 1.2422-1.5586 0.81641-3.8008-0.58203-8.8555-3.4141-12.113-1.2031-1.3984-2.3633-1.5195-1.8633-0.23438 0.15625 0.38672 0.078124 0.54297-0.15234 0.38672-0.23438-0.15234-0.54297-0.93359-0.69922-1.707-0.15625-0.81641-0.42969-1.707-0.66016-1.9805-0.61719-0.72266-3.5742-0.56641-4.3125 0.24609z"/>
  <path d="m286.77 118.06c-0.73828 0.38672-2.1719 0.81641-3.2188 0.96875-2.4141 0.34766-2.4453 1.125-0.15625 2.4062 1.3164 0.73438 1.5898 0.77734 1.8633 0.27344 0.26953-0.50391 0.54297-0.42578 1.6289 0.38672 1.5898 1.2422 2.3672 1.2812 2.9531 0.19531 0.50391-0.96875 0.23438-3.6133-0.42578-4.4297-0.58203-0.69141-1.0078-0.65625-2.6445 0.19922z"/>
  <path d="m312.7 121.9c0 1.8633 0.78516 3.9258 1.8633 5.0117 0.77734 0.77344 0.77734 0.77344-0.15234 1.2031-1.0547 0.46484-1.1719 1.0859-0.39062 2.0547 0.62109 0.81641 1.3203 0.85156 3.4141 0.23438 1.0078-0.30859 1.6758-0.77734 1.9023-1.3984 0.50391-1.2812 0.42578-4-0.15234-5.0859-0.50391-0.96875-3.6133-2.9102-5.3984-3.3359-1.0469-0.27734-1.0859-0.23047-1.0859 1.3164z"/>
  <path d="m284.95 124c-4.4648 0.85156-4.7773 1.0078-5.2031 2.2891-0.62109 1.7539-0.54297 2.5664 0.38672 3.8477 0.73438 1.0469 0.96875 1.1641 2.793 1.0469 2.1406-0.11719 1.9492 0.15234 2.7617-3.5352 0.19531-0.77734 0.46484-1.0469 1.2031-1.0469 1.0078 0 1.6758-1.3594 1.2031-2.5273-0.23438-0.65625-0.35156-0.65625-3.1445-0.074219z"/>
  <path d="m265.65 126.18c-0.078126 0.11719-0.85547 0.8125-1.7852 1.5117-1.4375 1.1328-1.7539 1.25-2.3359 0.78516-0.58203-0.46484-0.61719-0.42578-0.15625 0.15234 0.42578 0.54297 0.38672 0.73438-0.38672 1.2422-0.46484 0.34766-1.2422 0.62109-1.707 0.62109-0.50391 0-1.2031 0.42578-1.6367 0.92969-0.58203 0.73828-1.1641 0.96875-2.6367 1.0859l-1.9023 0.11328-0.11719 2.1406c-0.11719 2.0938-0.078125 2.1328 1.0117 2.1719 2.1328 0.078125 3.1797 0.54297 3.4102 1.4766 0.11719 0.50391 0.54297 1.0078 0.93359 1.125 1.0859 0.26953 4.3047-2.2578 6.2109-4.8945 1.7031-2.3281 2.2109-2.6445 1.5898-0.96875-0.34766 0.89062-0.54297 2.8711-0.46484 4.1992 0.039063 0.30859 1.0078-0.39062 2.3633-1.7461 1.2891-1.2812 2.3359-2.1406 2.3359-1.9414 0 0.85156 0.77344-0.85547 0.77344-1.7461 0-0.54297 0.46484-1.3984 1.0078-1.9023 0.81641-0.77734 0.93359-1.2422 0.85156-2.7227-0.11719-1.5508-0.23047-1.7812-0.89062-1.6289-0.89453 0.15234-2.4453 0.11719-4.7383-0.11719-0.87891-0.082031-1.6523-0.042968-1.7305 0.11328z"/>
  <path d="m268.75 138.91c-1.8242 1.9414-2.2969 2.8711-1.7852 3.7305 0.30859 0.58203 0.23047 0.66016-0.54297 0.46484-0.62109-0.15234-1.1641 0.039063-1.7852 0.58203-1.0859 1.0078-1.0859 1.0078 0.23438 1.707 1.0078 0.58203 1.0078 0.58203 0.19531 0.66016-1.3984 0.078125-3.1875 0.23438-3.6172 0.3125-0.89062 0.11719-0.26953 1.2031 1.3984 2.5664 0.97266 0.81641 1.9102 1.8242 2.0625 2.25 0.19531 0.50391 0.92969 0.96875 2.0156 1.3164 1.6289 0.46875 1.7539 0.46875 2.4883-0.46484 0.62109-0.77734 0.92969-0.85156 1.2812-0.50391 0.26953 0.27344 0.46484 0.66016 0.46484 0.93359 0 0.50781 2.0625 0.93359 4.582 0.93359 1.6289 0 2.0156 0.34766 1.1641 1.0469-0.38672 0.3125-5.8242 0.85156-8.7344 0.89453-0.58203 0-0.26953 1.7461 0.54688 3.1484 1.7031 2.9102 6.0938 2.5977 12.461-0.81641l2.0234-1.0859 0.53906 1.0117c0.50781 1.0078 0.69922 1.0469 3.375 1.0469h2.8711l1.2422-2.1328c0.66016-1.1641 1.5898-2.6445 2.0664-3.2188 2.207-2.793-0.97266-7.4609-3.8086-5.668-0.58203 0.34766-0.92969 0.23438-1.9805-0.73828-1.2383-1.125-1.2383-1.1641-0.46484-1.4336 0.89062-0.27344 1.0469-1.5977 0.58203-5.5156-0.35156-2.6758-0.96875-2.832-3.1016-0.73438-2.0625 2.1016-2.5664 3.8008-1.3594 4.582 1.0469 0.62109 1.0078 0.96875-0.042969 1.8633l-0.89062 0.69922 1.0469 2.1797c0.58203 1.1641 0.89453 2.25 0.69922 2.3672-0.19531 0.11719-1.3984-0.078126-2.6836-0.46484l-2.3633-0.69922-0.39062-2.1328c-0.77344-3.9219-1.4727-5.3594-2.9102-5.8633-1.1992-0.46484-1.2773-0.58203-1.125-1.9805 0.19531-1.6289 0.15625-1.668-2.5664-2.0547-1.6758-0.23047-1.8633-0.14844-3.1875 1.2109z"/>
  <path d="m315.31 140.23c-0.50391 1.8203-0.26953 2.9102 0.73438 3.8008 0.54297 0.46484 1.3594 1.668 1.7852 2.6445 0.77734 1.7461 0.77734 1.7461 2.4141 1.5586 0.85156-0.15625 2.1289-0.35156 2.793-0.50781 1.1328-0.23438 1.2031-0.15234 2.1797 2.0625 1.2031 2.6836 1.3594 3.8086 0.96875 6.8359-0.27344 1.9414-0.19531 2.4453 0.65625 4.2734 0.54297 1.0859 1.2031 2.2891 1.4766 2.6367 0.66016 0.81641 3.1094 1.5195 5.2031 1.5195 1.4844 0 1.6367-0.11719 1.832-1.125 0.15234-0.66016 0.53906-1.1641 1.0078-1.3203 0.69531-0.15234 0.81641 0 0.81641 1.125 0 1.4727-0.11719 1.4375 4.082 1.3203 3.5273-0.078125 7.2969-1.0469 9.1172-2.3672 1.5273-1.125 1.6758-1.125 2.5703-0.54297 0.50391 0.3125 0.92969 0.50391 0.92969 0.39062 0-0.11719 0.3125-0.042968 0.69922 0.15234 0.54297 0.27344 1.082 0.19531 2.0508-0.38672 1.7852-1.0859 2.2969-1.8242 2.2969-3.3438 0-0.77344 0.19141-1.2812 0.50391-1.2812 0.58203 0 1.8633-1.3984 1.5508-1.707-0.15234-0.11719-0.54297-0.23438-0.92969-0.23438-0.62109 0-0.70703-0.34766-0.70703-2.1719 0.042968-2.2891-0.33984-2.9102-1.5781-2.5977-0.42969 0.11719-0.75-0.078125-0.86328-0.54297-0.11719-0.42578-0.92969-1.0117-2.0156-1.4375-1.707-0.66016-1.9375-0.66016-3.8477-0.039062-1.1211 0.35156-3.4492 1.4375-5.2031 2.3672-2.918 1.5898-3.2188 1.8633-3.2188 2.9102 0 1.3594-0.11719 1.3594-1.6289 0.3125-0.85156-0.62109-1.5117-0.77734-2.5586-0.62109-0.97266 0.11719-1.6367 0-1.9805-0.39062-0.58203-0.65625-0.77344-0.53906-1.0117 0.66016-0.26953 1.4766-0.46484 1.2812-0.73438-0.73828-0.3125-2.25-0.89453-2.7539-3.375-2.7539h-1.668l1.8594-1.9023c1.6367-1.6289 1.793-1.9414 1.1641-2.1328-0.42578-0.11719-1.5508-1.0078-2.5664-1.9805-1.0078-0.96875-2.0625-1.7461-2.3359-1.7461-0.26953 0-1.125 0.3125-1.8633 0.73828l-1.3555 0.73438-1.1641-1.5117c-1.2812-1.7539-3.8008-3.0742-6.1719-3.3438-1.5273-0.21094-1.7188-0.13281-1.9141 0.68359z"/>
  <path d="m310.42 144.54-0.46484 1.2812-0.66016-1.0859c-0.73438-1.2031-2.0234-1.3984-2.9531-0.42578-0.85156 0.81641-0.77344 1.5586 0.35156 4 0.54297 1.1641 0.92969 2.1797 0.81641 2.25-0.15625 0.15234-0.96875-1.1641-2.3281-3.8477-0.42578-0.77734-1.125-1.4727-1.5898-1.5586-0.78516-0.15234-0.78516-0.039062-0.54297 2.4883 0.11328 1.4727 0.42578 2.8711 0.69922 3.1484 0.73438 0.73438 0.46484 1.0469-0.50781 0.62109-1.3555-0.62109-3.7227 1.1641-3.7227 2.832 0 0.97266 0.11719 1.1328 0.69922 0.89453 1.1641-0.46875 7.2227-1.7148 7.4141-1.5586 0.3125 0.34766-1.2812 1.7852-1.7461 1.5898-0.30859-0.11719-0.38672 0.11719-0.23437 0.62109 0.15625 0.62109 0.078124 0.73828-0.3125 0.50781-0.30859-0.19531-0.42578-0.15625-0.26953 0.078125 0.11719 0.19141 0.26953 1.2812 0.30859 2.3672l0.11719 2.0234h1.7461c0.97266-0.039062 2.6836-0.27344 3.7305-0.54688l1.9375-0.50391 0.54688-5.1289c0.66016-5.8242 0.3125-8.8125-1.2031-10.406-1.0977-1.1523-1.3281-1.1133-1.832 0.35938z"/>
  <path d="m240.91 149.47c-0.19141 0.35156-0.46484 1.2422-0.62109 1.9805-0.46484 2.25-1.3984 4.2734-1.8633 4-0.19531-0.11719-0.27344-0.078125-0.15625 0.15234 0.46484 0.73828-5.6289 7.6484-9.625 10.875-1.9023 1.5977-1.9023 2.5977 0 6.2891 1.4727 2.8008 1.6367 3.9219 0.89062 6.3281-0.3125 1.0859-0.3125 1.6289 0 1.9414 0.62109 0.62109 2.6758 0.46484 3.8477-0.3125 0.93359-0.58203 1.125-0.58203 3.0703 0.078125 2.3672 0.81641 2.6055 0.69922 3.9258-1.7852 1.5508-2.8711 2.1016-3.457 4.1172-4.0781 1.4727-0.46484 2.4805-1.1641 3.7617-2.5195 1.6367-1.7852 2.0234-1.9805 6.2148-3.2266 2.4414-0.73828 4.7383-1.3984 5.0469-1.4766 2.0547-0.54297 2.5273-3.8477 0.96875-7.1055-1.3203-2.832-2.0234-3.3438-5.0859-3.7695-1.4336-0.19141-2.8789-0.58203-3.1875-0.85156-0.85547-0.66016-2.0156-3.375-2.0156-4.6641 0-1.2812 0.035156-1.2812-4.9727-1.9414-3.6133-0.44922-4.0469-0.44922-4.3164 0.085938z"/>
  <path d="m317.36 156.7c-0.89062 1.3984-1.7812 2.5273-1.9766 2.5273-0.19531 0-0.34766 0.34766-0.34766 0.73828 0 0.42578 0.96875 1.5508 2.2461 2.6367 3.7695 3.1875 3.3828 3.0312 5.1641 2.2188l1.5898-0.69922-0.14453-2.5664c-0.30859-4.0391-2.1016-7.375-4-7.375-0.66797-0.003906-1.2812 0.61328-2.5312 2.5195z"/>
  <path d="m170.59 160.27c-0.035157 0.62109-4.8906 6.3281-10.012 11.688-2.918 3.1094-5.6719 6.0977-6.0977 6.6484-2.1719 2.9102-6.1758 7.375-6.4062 7.2188-0.15625-0.11719-0.26953 0.039063-0.23437 0.3125 0.035156 0.46484-1.4766 2.4805-4.4297 5.9023-0.77734 0.85547-2.25 2.5977-3.2969 3.8789-3.4961 4.1562-7.2617 7.9648-7.6875 7.6875-0.19531-0.11719-0.27344-0.039062-0.15625 0.15625 0.35156 0.54297-10.988 12.965-11.492 12.656-0.23438-0.11719-0.27344-0.039062-0.11719 0.19531 0.35156 0.54297-2.4453 3.6523-2.9922 3.2969-0.23437-0.11719-0.27344-0.039062-0.11719 0.23438 0.19531 0.27344-1.3984 2.3359-4.0391 5.2812-4.7773 5.3594-4.7773 5.3594-2.6367 7.8047 1.2422 1.3945 2.8711 2.4062 4.2656 2.6836 1.2031 0.23438 1.2031 0.35156 0.15234 2.5977-1.1562 2.4844-1.2344 3.1445-0.57422 6.6055 0.54297 2.9102 0.23438 4.4648-1.3164 6.6758l-0.81641 1.125 1.0547 0.81641c1.2812 1.0078 2.9102 0.97266 7.8438-0.19531 2.7539-0.66016 3.7227-0.73828 4.582-0.39062 1.1992 0.46484 1.3164 1.1641 0.46484 3.4961-0.50391 1.4375-0.50391 2.1016 0.039062 5.5938 1.0469 6.9492 0.58203 21-0.66016 20.266-0.19531-0.15234-0.23438 0.039062-0.11719 0.35156 0.11719 0.30859-0.078124 1.125-0.42969 1.8242-1.4375 2.7109-0.19531 7.6836 3.375 13.395 0.81641 1.3203 1.4727 2.5977 1.4727 2.918 0 1.2422-4.4258 6.7539-6.4414 7.9961-0.62109 0.38672-0.66016 0.50391-0.15625 0.84375 0.77734 0.54688 0.11719 1.1758-2.0625 2.0273-2.4883 0.96875-2.793 1.8984-2.7539 8.1094l0.078125 5.2461-0.54688-2.4805c-0.81641-3.9648-1.3164-3.8125-1.668 0.58203-0.19531 2.2188-0.11719 3.0312 0.27344 3.3828 0.42578 0.30859 0.69922 0.23047 1.1992-0.42969 0.46875-0.66016 0.73828-0.77344 1.0938-0.42188 0.34766 0.35156 0.69922 0.23438 1.5117-0.39062 0.62109-0.50391 1.3594-0.73828 1.7852-0.62109 0.39062 0.15625 0.69922 0.085938 0.69922-0.15234 0-0.23438 0.42578-0.42578 0.96875-0.42578h1.0078l-1.082 1.3555c-0.58203 0.74609-1.3594 1.3594-1.7148 1.3594-0.69922 0-1.125 1.4766-1.125 3.8125 0 1.707-0.27344 1.5117-0.46484-0.32422-0.11719-1.0469-0.35156-1.3477-1.0117-1.3945-0.46484-0.039062-0.73828 0.085938-0.66016 0.27344 0.11719 0.15234-0.23438 0.62891-0.77734 1.0859-0.58203 0.42969-1.0078 0.89062-1.0078 1.0859 0.035157 0.85156-0.42578 1.5898-0.93359 1.4375-0.30859-0.15625-0.66016 0.26953-0.96875 1.1719-0.73828 2.2773 0.38672 3.1016 1.3203 0.88672l0.54297-1.2422 0.50391 1.2031c0.66016 1.5195 1.5508 1.2812 2.7617-0.62109l0.85938-1.375 0.27344 1.5586c0.23437 1.3203 0.15625 1.7148-0.69922 2.5664-0.85156 0.92969-0.93359 1.2422-0.65625 2.8789l0.26953 1.8594 1.9805-0.23438c1.0938-0.11719 2.2891-0.34766 2.6836-0.46484 0.58203-0.23437 0.66016-0.11719 0.58203 0.61719-0.074219 0.50781-0.27344 1.1328-0.42578 1.3945-0.35156 0.54688-3.0312 1.5195-5.0117 1.8711-1.9023 0.30859-2.5664 1.3984-1.668 2.7539 0.54297 0.89062 0.54297 1.0078-0.078125 1.8984-0.39062 0.51562-1.0117 1.0547-1.3594 1.1758-0.85156 0.30859-0.89453 2.0508-0.11719 4.2227 0.30859 0.85547 0.46484 1.6758 0.38672 1.793-0.11719 0.15234 0.39062 0.23438 1.0938 0.19141 0.92969-0.078125 1.5898 0.19531 2.6758 1.1211 1.3594 1.1719 1.3984 1.2891 1.0859 2.957-0.19531 0.96875-0.23438 1.8594-0.11719 2.0508 0.078124 0.15234 1.125 0.85156 2.2891 1.4844 1.7461 1.0078 4.8164 4 4.8164 4.6992 0 0.11719-0.35156 0.58203-0.77734 1.082-0.42969 0.46875-0.69922 1.0195-0.58203 1.1719 0.078125 0.15234 0.30859 0.96875 0.50391 1.8594 0.34766 1.4766 0.3125 1.5977-0.3125 1.2422-0.93359-0.50391-1.0469-0.50391-1.3203 0.20312-0.26953 0.73438 1.3203 3.293 2.0625 3.293 0.38672 0 0.46484-0.34766 0.26953-1.3477-0.26953-1.3203-0.23438-1.3672 0.89062-1.3672 1.4375 0 1.8242 0.58203 1.0938 1.6758-0.38672 0.61719-0.46484 1.1641-0.15625 2.2891 0.39062 1.5117 0.93359 1.7852 2.2188 1.0859 0.66016-0.34766 0.73828-0.19141 0.96875 1.4336 0.15234 1.0547 0.35156 2.1797 0.42578 2.5195 0.15234 0.46875-0.11719 0.73828-0.85156 0.93359-1.0547 0.27344-1.0117 0.27344 0.85156 1.2812 1.0547 0.54688 1.9805 1.0117 2.1016 1.0117 0.11719 0.039062 1.7852 0.77734 3.6836 1.707 1.9414 0.89453 4.3516 2.0156 5.3984 2.4141 1.0469 0.42578 2.6445 1.082 3.5273 1.5117 10.758 4.8945 30.566 12.629 38.91 15.148 2.3672 0.73438 4.2734 1.4336 4.1953 1.5469-0.078125 0.125 0.35156 0.19531 0.89453 0.24219 0.58203 0.035157 5.1641 1.082 10.168 2.4023 8.1133 2.1016 31.922 7.6172 41.938 9.7109 11.57 2.4453 31.332 5.0117 43.875 5.707 2.4414 0.15625 4.8945 0.3125 5.4375 0.42578 0.50391 0.078125 5.9766 0.27344 12.113 0.38672l11.148 0.26953-0.042969-2.8672c0-2.6836 0.042969-2.918 1.0547-3.6445 2.7148-1.9805 2.6367-1.7852 1.8984-3.2305-1.125-2.3242-0.38672-1.625 1.7461 1.5195 1.1328 1.7461 1.9805 3.1797 1.9023 3.2578-0.078125 0.085938-0.77344 0-1.5898-0.19141-2.4883-0.54688-2.375 1.2812 0.15625 1.9414 0.80469 0.23438 1.5117 0.54297 1.5117 0.69531 0 0.15625-0.81641 0.69922-1.8242 1.2422-2.6836 1.4375-2.9531 2.1445-1.2812 3.5781l1.3555 1.1641 4.7773-0.27344c5.2852-0.3125 5.6289-0.19141 8.1602 2.4141 1.1992 1.2383 1.3945 1.3164 2.4531 0.89062 1.0039-0.42578 1.2773-0.38672 2.4375 0.54297 1.6758 1.2812 2.9961 1.2812 5.0898 0.039062 0.89453-0.5 1.7461-0.85547 1.8359-0.73438 0.33984 0.30859 8.8828 1.707 9.2344 1.5195 0.15234-0.11719 0.6875-1.1719 1.2031-2.3281 0.58203-1.4062 1.0469-2.1016 1.3984-1.9492 0.26953 0.11719 0.73438 0.3125 1.0469 0.42578 0.73828 0.27344 1.3945-1.0078 1.4727-2.7109 0.039063-1.4375 0.77344-2.0625 1.4336-1.2891 0.24219 0.32422 0.24219 0.70703 0.042969 1.0547-0.5 0.77344-0.46484 1.5508 0.042968 1.5508 0.66016 0 1.5859-2.8008 1.3945-4.1562-0.11719-0.69922-0.078125-1.2812 0.078125-1.2812 0.19531 0 1.5195 0.54297 2.9844 1.2031l2.6484 1.1992 3.457-0.46094c3.6172-0.50781 4.1172-0.35156 4.1484 1.082 0 0.27344 0.42188 1.1328 0.93359 1.9492 2.2891 3.5273 4.1484 4.4297 7.6445 3.6797l1.8242-0.33984 0.50781 1.7461c0.26953 0.96875 0.97266 2.2109 1.5508 2.75 0.96875 0.89062 1.0469 1.1328 0.73828 2.6484-0.27344 1.6289-0.27344 1.7031 0.8125 2.1016 1.0547 0.34766 1.125 0.54297 1.125 2.2891 0 1.5859 0.11719 1.8945 0.70703 1.8945 0.38672 0 1.6289 0.47656 2.75 1.0547l2.0625 1.0195 4.9336-0.46875c7.4102-0.73828 9.043-0.77734 10.477-0.19141 1.8242 0.73438 3.2695 0.66016 5.0508-0.27344 1.5508-0.81641 1.5859-0.81641 2.6445-0.039063 1.0742 0.77734 3.7188 3.5273 7.1797 7.4492 1.7539 1.9805 1.8203 2.1406 1.2812 2.9961-0.3125 0.46484-0.58203 1.4766-0.58203 2.2461 0 1.2422-0.074219 1.3672-1.1602 1.3672-0.66016 0-2.25-0.32031-3.4961-0.70703-1.9023-0.54297-2.3281-0.81641-2.3281-1.4766 0-0.5-0.38672-0.96875-1.0117-1.25-0.54688-0.27344-0.85156-0.65625-0.73828-0.84375 0.15625-0.23437 0.11719-0.35156-0.078125-0.3125-0.15234 0.039063-0.78516-0.19141-1.3164-0.58203-1.3984-0.92969-2.6836-1.1641-2.6836-0.46484 0 0.3125 0.8125 1.5195 1.7812 2.7227l1.7539 2.2109-0.85156 3.2578c-0.81641 3.1094-0.85547 3.5781-0.42969 7.957 0.54688 5.1758 0.54688 5.1758-1.8984 8.2422-1.7188 2.1719-2.1016 3.5664-1.5508 5.5039 0.34766 1.2812 0.26953 1.4844-0.85156 2.5273-0.70703 0.62109-1.7148 1.3555-2.2891 1.5898-1.4375 0.58203-1.4375 1.7461 0.039062 2.0938 1.5469 0.35156 5.0859 0.11719 5.0859-0.30078 0-0.66797 3.4102-5.1758 5.0469-6.6484 2.5195-2.2891 4.6992-3.1016 8.2656-3.1016 2.6094-0.050781 2.9961-0.125 2.9961-0.70703 0-0.42969-0.3125-0.69922-0.73828-0.69922-0.81641 0-1.3984-1.0117-0.81641-1.3555 0.22266-0.15234 2.3672-0.93359 4.7695-1.7852 2.375-0.85156 4.5117-1.707 4.7109-1.9023 0.22266-0.23047 0.14453-0.61719-0.24219-1.0469-0.3125-0.39062-0.69922-1.0195-0.81641-1.3594-0.3125-0.85547-0.61719-0.85547-3.3828-0.11719-1.1602 0.30859-2.1719 0.58203-2.2109 0.58203-0.078125 0-0.11719-0.61719-0.11719-1.3984 0-1.0469 0.27344-1.5898 1.1719-2.3672 0.66016-0.54297 1.4375-1.4336 1.7461-2.0117 1.6367-3.2266 7.2578-5.9805 11.883-5.9141 1.9805 0.085937 2.7539-0.074219 3.457-0.65625 1.0547-0.85156 0.81641-2.0156-0.42578-2.0156-2.2891 0 1.5898-3.1484 4.2266-3.4141 1.4062-0.11719 1.8633-0.3125 1.9023-0.81641 0.11719-1.2812 2.957-5.5117 4.9727-7.375 3.0742-2.793 7.6094-4.9336 16.855-8.0039l8.3086-2.7539 0.42578-1.3555c0.58203-1.793 0.96875-2.3672 2.4453-3.4609 0.69531-0.5 1.2812-1.2031 1.2812-1.5469 0-0.35156 0.30859-1.5977 0.69531-2.7539 0.65625-1.9102 0.69922-2.2891 0.19141-4.2344-0.92969-3.5391-0.92969-4.2344-0.23438-10.445 0.54688-4.7031 0.85156-6.0586 1.3594-6.4102 0.50391-0.3125 0.81641-0.23438 1.3984 0.27344 1.0078 0.92969 1.3945 0.85547 3.4141-0.69922 2.0156-1.5508 2.8711-1.668 4.6211-0.58203 2.1289 1.3203 4.4648 5.6328 6.0156 11.07l0.66016 2.3359 1.5898 0.11328c1.4766 0.11719 1.707 0.27344 2.4023 1.6289 0.78906 1.5586 2.1055 2.7227 3.0352 2.7227 0.30859 0 0.96875-0.35156 1.5195-0.77734 0.54297-0.42969 1.3164-0.78516 1.7539-0.78516 1.3945 0 2.8672-1.125 3.5664-2.6758 0.54297-1.125 1.0195-1.625 1.8242-1.793 1.3594-0.30859 1.4375-0.42578 3.8086-5.0391 2.0625-4.0391 2.9922-5.5117 3.3438-5.168 0.11719 0.125-0.085937 0.94141-0.38672 1.8633-0.66016 1.9023-0.78516 3.8789-0.19141 3.8789 0.23047 0 0.88672-0.42188 1.4336-0.92969 1.4766-1.3555 4.6992-3.0234 5.2461-2.7148 0.22266 0.15625 0.30859 0.11719 0.19141-0.11719-0.15625-0.23438 0.074218-0.50391 0.5-0.62109 1.1758-0.30859 0.94141 0.35156-0.5 1.4375-0.69922 0.54297-1.5195 1.4336-1.8242 1.9414l-0.50391 0.97266-0.69922-0.85547-0.69531-0.85156-1.5977 1.5508c-1.0859 1.0547-2.4062 3.1797-4.1484 6.7148l-2.5703 5.168 0.62109 1.4375c0.35156 0.77344 0.69922 1.9414 0.85156 2.5977 0.39062 1.7539 1.2109 2.8008 2.4141 3.1094 1.668 0.37891 3.6055 1.4062 3.4141 1.7539-0.42969 0.69922 1.3984-0.15625 2.3281-1.0469 2.2188-2.2188 4.1484-8.5859 3.8867-12.66-0.11719-2.0625 0.37891-2.6094 2.4414-2.6094 0.93359 0 1.2422-0.26953 1.8633-1.6289 1.0117-2.2852 3.7227-5.7773 8.8867-11.57 3.8516-4.2656 4.6641-5.7773 2.8438-5.2734-2.5703 0.73828-2.9102 0.69922-3.1523-0.11719-0.19141-0.85547-1.5508-1.0859-2.5586-0.46875-0.35156 0.24219-0.93359 0.20312-1.5195-0.074219-0.77734-0.35156-1.0547-0.32031-1.5117 0.3125-0.3125 0.42188-0.73828 0.73438-0.93359 0.66016-0.23047-0.042969-0.3125 0.035157-0.19141 0.22266 0.11719 0.19531-0.27344 0.81641-0.90234 1.3984-0.84375 0.81641-1.707 1.1719-3.9531 1.4766-1.5859 0.23437-3.3438 0.65625-3.9219 0.92969-1.3203 0.65625-2.25 0.35156-2.1406-0.73828 0.085938-0.92969 0-0.97266-4.2266-0.5-2.375 0.22266-2.4453 0.22266-4.3867-1.3281-1.0859-0.84375-2.0547-1.9805-2.2188-2.4883-0.24219-1.0469-1.4453-1.5117-2.793-1.1133-0.77734 0.19141-0.85547 0.11328-0.66016-0.74609 0.34766-1.3945 0.38672-4.6133 0.078125-5.7852-0.11719-0.54297-0.69922-1.1992-1.2031-1.4336-0.89062-0.38672-1.0859-0.30859-2.3672 1.1602-0.74609 0.89453-1.3594 1.7539-1.3594 1.9414 0 0.50781-1.3086 0.35156-2.25-0.30859-0.69922-0.46484-1.2031-0.54688-2.6367-0.23438-1.6758 0.35156-1.7148 0.35156-1.125-0.3125 0.34766-0.38672 1.7852-1.0078 3.1406-1.3945 2.9961-0.81641 4.3125-2.0938 5.5508-5.4375 1.9805-5.2812 0.39062-8.6562-4.1055-8.6953-2.8789 0-6.1367 1.6289-10.293 5.1641-1.3203 1.1328-2.4062 1.7852-2.6836 1.5859-0.26953-0.15234-0.35156-0.11719-0.23047 0.11719 0.11719 0.19141-0.90234 1.4844-2.25 2.793-2.6445 2.6055-6.0273 7.3789-7.6875 10.91-0.58203 1.1641-1.6367 4.7812-2.3672 8.043-1.5195 6.6406-2.7539 9.5938-4.8555 11.688-3.2969 3.2695-7.918 7.5781-6.9883 6.4844 7.918-9.1992 8.0742-9.4375 8.8555-11.766 0.46484-1.3164 1.3203-5.6719 1.9414-9.6719 0.66016-4.0039 1.4375-8.1992 1.7812-9.2461 0.81641-2.5156 3.1484-5.8984 4.6602-6.707 0.66797-0.35156 1.2812-0.81641 1.3984-1.0078 0.15234-0.15625 0.54297-2.2578 0.89453-4.6641 0.92578-6.1367 0.96875-6.4102 1.8984-7.2617 3.5742-3.375 24.355-14.324 27.184-14.324 1.125 0 2.1328-0.65625 6.1367-3.9258 2.6445-2.1719 4.9297-4.2266 5.0391-4.5859 0.11719-0.33984 0.54688-3.2539 0.93359-6.4727 0.66016-5.7109 0.69922-5.8633 1.8242-6.6094 0.65625-0.42578 1.5859-1.707 2.2461-3.1016 0.93359-1.9805 1.3984-2.4883 3.1094-3.4141 3.2656-1.7812 4.0391-4.5742 2.9102-10.711l-0.71875-3.8125-1.2422 0.039062c-1.125 0.039063-1.4727-0.23438-3.3438-2.8789-2.3672-3.2266-3.8789-4.3164-6.1367-4.3438-2.25-0.039063-3.5352 0.93359-3.5352 2.5586 0 0.69922-0.26953 1.5195-0.58203 1.7852-0.50781 0.42578-0.58203 0.26953-0.58203-1.0078 0-1.832-0.23047-2.2188-1.8594-3.0352-1.2031-0.61719-4.5117-0.77344-4.1172-0.19141 0.078125 0.15625-0.35156 0.61719-1.0117 0.97266-1.25 0.77734-1.25 0.73828-0.81641 1.8984 0.23047 0.54688 0.042969 1.2109-0.54688 2.1406-0.42578 0.73828-1.3945 2.8711-2.0938 4.7383-0.69922 1.8633-1.707 3.7305-2.1797 4.1953l-0.89062 0.81641-0.23047-1.3164c-0.15234-0.73828-0.085938-1.8242 0.15234-2.3672 0.46484-1.2031 3.0703-4.7383 3.457-4.6211 0.11719 0.039063 0.19531-0.66016 0.19531-1.5508-0.085937-1.9414 0.46094-3.6133 1.3555-4.2773 0.34766-0.23047 1.2031-1.1992 1.8633-2.0938 1.1602-1.4727 1.2422-1.668 0.66016-2.2461-1.3203-1.3164-5.207-2.3281-5.207-1.3594 0 0.23047-0.42578 0.85156-0.92969 1.3594-0.89062 0.89063-0.97266 0.89063-2.9453 0.38672-1.9805-0.54297-3.5039-0.30859-3.5039 0.54688 0 0.15234-0.8125 0.19141-1.8203 0.035156-1.668-0.26953-1.9023-0.19141-2.8672 0.85156-1.2109 1.3203-1.3281 1.2422-2.2969-1.7812-0.46484-1.4727-0.50391-1.4727-2.1016-1.25-4.5352 0.73828-4.8047 0.73828-6.1719-0.11328-0.78516-0.46875-1.9805-0.81641-2.9102-0.81641-0.85547 0-1.6758-0.15625-1.832-0.35156-0.11719-0.23438 0.15625-1.0117 0.58203-1.793 0.89453-1.5469 1.0859-4.2266 0.3125-3.9922-0.27344 0.11328-0.62109 0.69531-0.77734 1.3086-0.19531 0.70703-0.23437 0.23438-0.15234-1.2422l0.15234-2.3633-1.8203-0.23047c-0.97266-0.15625-2.4531-0.42969-3.2305-0.66016-1.3945-0.38672-1.3945-0.47656-1.0078-1.5977 0.35156-1.0117 0.27344-1.3164-0.50391-2.1328-1.0547-1.125-1.3945-1.1641-2.4062-0.27344-0.62109 0.54688-0.81641 0.58203-0.97266 0.19531-0.27344-0.77734-2.4062-3.1484-3.2188-3.6172-0.54297-0.26953-1.0938-0.19141-1.9492 0.27344l-1.2422 0.62109 0.27344-1.3203 0.23437-1.3594-3.7695-2.0547c-6.8711-3.7305-8.6914-5.1289-10.051-7.8789-1.0938-2.1016-1.8711-2.6055-2.7617-1.7148-0.54688 0.50391-0.50391 0.62109 0.27344 0.85547 0.66016 0.19531 0.77344 0.46484 0.58203 1.0859-1.0469 3.457-1.0078 4.7773 0.23438 11.727l0.85156 4.6992-1.3555 1.7812c-0.77734 1.0117-1.793 2.8789-2.2891 4.1562-0.50781 1.3203-1.1719 2.375-1.4375 2.375-0.27344 0-1.9805-0.62109-3.8086-1.3594-1.7852-0.73828-3.5742-1.3594-3.9531-1.3594-1.1719 0-3.2656 1.5586-3.6914 2.7227-0.23438 0.65625-0.58203 1.1602-0.73828 1.1602-0.50391 0-0.81641-0.84375-0.35156-1.1211 0.23437-0.15234 0.66016-1.0547 0.92969-2.0234 0.50781-1.668 0.50781-1.8242-0.35156-2.8711-0.50781-0.62109-1.082-1.0078-1.3945-0.85156-0.81641 0.3125-3.5742-4.8906-3.2656-6.1367 0.19141-0.69922-0.078125-1.2031-1.1211-2.25-1.0938-1.0859-1.3672-1.668-1.3672-2.8711 0-2.8711-0.42578-4.3867-1.2031-4.3867-0.85156 0-0.85156 0-0.34766 1.3164 0.42578 1.1641 0.30859 1.2031-1.9805 0.42578-1.5508-0.54297-1.9102-0.54297-3.4141 0-0.92969 0.30859-2.375 0.58203-3.1875 0.58203-1.5859 0-1.4727 0.11719-2.4766-3.6914-0.042969-0.23438-1.4062-0.69922-2.957-1.125-1.5859-0.38672-3.2188-1.0078-3.6445-1.3984-1.7461-1.5195-3.9219-2.7148-4.9336-2.7148-0.81641 0-1.3945 0.42578-2.5195 1.8984-2.4531 3.1484-2.6836 3.2188-9.5547 2.9102l-5.9414-0.26953-0.8125 1.3984c-1.4844 2.4883-1.3281 3.9609 0.65625 6.2109 2.2891 2.6055 2.832 4.1562 2.4883 7.0273-0.16406 1.3164-0.32031 2.5273-0.35156 2.75 0 0.20312 1.2383 2.2969 2.8398 4.5859l2.8281 4.1953-1.0078 3.9609c-0.54297 2.168-1.2422 4.7773-1.5859 5.7383-0.62109 1.668-0.62109 1.8711 0.035156 3.2266 0.42578 0.89062 1.2109 1.7031 1.9805 2.0938 0.69922 0.3125 1.2422 0.69531 1.1602 0.81641-0.066407 0.11328 0.35937 0.23047 0.98047 0.26953 1.4766 0.035156 3.0625 1.2109 7.1406 5.125 4.6211 4.5039 5.0469 5.5156 5.0117 12.117 0 4.6523-0.11719 5.5508-1.0547 8.1133-2.4805 6.9062-6.3281 11.562-10.836 13.234-1.5898 0.54297-1.3086 1.2812 1.1719 2.9961 2.9844 2.1289 3.3359 2.5938 4.1094 5.5508 0.38672 1.3945 1.4766 3.875 2.4453 5.543 0.97266 1.6367 1.9805 3.8125 2.2891 4.7812 0.27344 0.97266 0.89453 2.2188 1.3594 2.793 0.73438 0.94141 0.77734 1.3594 0.54297 4.3867-0.19141 2.6445-0.15234 3.6172 0.3125 4.5078 0.92969 1.7539 0.23438 2.375-1.0469 0.89453-0.78516-0.97266-1.2422-1.2109-1.9414-1.0117-0.77734 0.19141-0.94141 0.58203-1.25 2.6445-0.35156 2.4062-0.38672 2.4414-1.4766 2.3672-1.5195-0.11719-4.7383-1.8203-4.582-2.4062 0.042969-0.26953-0.078125-0.38672-0.27344-0.26953-0.5 0.30859-5.8984-5.2852-5.6602-5.9141 0.11328-0.27344 0.035156-0.42578-0.15625-0.30859-0.15625 0.11719-0.89062-0.42578-1.6289-1.1641s-2.25-1.9805-3.3438-2.7227c-1.4375-0.92969-2.0625-1.625-2.0625-2.1719 0-0.77734 0.042969-0.77734 0.51562-0.19141 0.49219 0.69531 4.543 1.668 7.8359 1.9023 1.8594 0.11719 1.9492 0.074219 1.8242-0.85547-0.078125-0.54297-0.81641-1.6289-1.6367-2.4453-1.7734-1.7148-3.4453-1.9023-6.5977-0.69531l-1.9492 0.73437v-1.3164c0-0.73438-0.15234-1.6367-0.38672-2.0234-0.19141-0.34766-1.0078-2.2461-1.7422-4.1484-1.2422-3.0625-1.4453-4.0391-1.6367-8.1133l-0.23438-4.582-4.8906 0.27344c-2.6836 0.11719-6.8047 0.38672-9.1211 0.58203l-4.2383 0.3125-2.3672-1.4375c-2.2852-1.3945-6.6016-2.75-10.797-3.3438-1.1211-0.15234-1.8633-0.46094-1.8633-0.77344 0-0.66016-3.0234-4.5039-4.4648-5.6719-1.7461-1.4336-3.1094-1.9102-5.3945-1.9102-1.8633 0-2.3008-0.15234-3.9258-1.5078-1.0078-0.85547-2.4023-1.6289-3.0625-1.7539-1.4766-0.27344-4.8477 0.62109-7.1133 1.9414-1.1641 0.66016-1.8633 0.85156-2.4414 0.61719-0.77734-0.27344-0.90234-0.65625-1.0117-3.0625-0.11719-3.0742-0.85156-6.332-2.3672-10.406-0.50391-1.5195-1.0547-2.9922-1.1641-3.3359-0.11328-0.46875-0.73438-0.58203-2.9531-0.54688-1.5508 0.039063-3.1484 0.19141-3.5742 0.3125-1.2031 0.38672-2.7148-2.6484-2.3281-4.6602 0.11719-0.77734 0.3125-2.4141 0.42578-3.5781 0.42578-6.0156 0.66016-7.6836 1.5195-11.223 1.25-5.1172 2.2969-7.6836 3.9219-9.4688 1.4336-1.5898 1.6289-2.25 0.73828-2.25-0.62109 0-0.81641-0.61719-0.23438-0.85156 0.15625-0.078125 1.2031-1.2031 2.3281-2.5195 1.0938-1.3594 2.4883-2.6836 3.1094-3.0352 1.6758-0.84375 1.8711-1.7734 0.54297-2.7891l-1.0859-0.89062h2.0625c2.2109 0 4.8477-1.0859 5.2812-2.1406 0.46484-1.2422 0.23438-3.1797-0.46484-3.8008-1.4844-1.3203-5.9453-3.0703-11.652-4.5469-0.89062-0.23438-1.5508-0.58203-1.4336-0.77344 0.50391-0.85547 3.3438-0.3125 7.5781 1.3984 5.3594 2.1328 6.9102 2.1719 8.6523 0.078125 0.58203-0.69922 1.1602-1.6367 1.2812-2.0625 0.11719-0.54297 0.93359-1.0859 2.4023-1.668 2.8008-1.0547 4.8164-2.7148 6.1719-5.0469 0.90234-1.5195 1.0547-2.25 1.0938-4.6992v-2.9453l-3.8789-0.20312c-4.2344-0.19531-5.4766-0.69922-7.7617-3.1094-0.62891-0.69922-1.6758-1.4727-2.2578-1.8242-0.62891-0.30859-1.0117-0.66016-0.89453-0.77734 0.39844-0.38672 3.7344 0.73828 3.4609 1.1641-0.11328 0.23438-0.039062 0.26953 0.19531 0.11719 0.23438-0.15625 1.7852 0.42578 3.4609 1.2383 1.6641 0.85547 3.9141 1.668 5.0117 1.7852 1.9414 0.26953 1.9766 0.26953 3.2539-1.1641 1.5508-1.7812 3.5781-6.0938 3.4141-7.3008-0.085938-0.54297-0.54297-0.96875-1.3945-1.2383-1.5898-0.50391-2.1719-1.0859-1.9023-1.8633 0.18359-0.50391 0.66016-0.58203 2.2852-0.38672 2.8008 0.26953 3.0352 0.38672 3.0352 1.3164 0 0.66797 0.15234 0.73828 1.082 0.54688 0.58203-0.15625 1.3594-0.42578 1.7852-0.62109 0.38672-0.23437 1.4688-0.27344 2.4023-0.11719 1.9492 0.26953 2.2969-0.3125 0.93359-1.5508-0.96875-0.89453-0.61719-1.4375 0.62109-0.96875 0.54297 0.23438 1.0938 0.38672 1.2422 0.38672 0.15234 0 1.125-1.3984 2.1797-3.0703 1.0859-1.707 2.3281-3.2969 2.832-3.5742 1.9805-1.082 0.70703-5.8242-2.5977-9.5547-0.85156-0.96875-1.4453-1.9414-1.2812-2.1719 0.11719-0.23438 0.042969-0.27344-0.19141-0.11719-0.39062 0.23438-2.4062-2.25-2.4062-2.9531 0-0.15234 0.64844-0.3125 1.4336-0.38672 1.9102-0.15625 2.25-1.125 1.9102-5.0469l-0.27344-2.9102-2.418-0.54297c-2.168-0.50391-2.4023-0.66016-2.5195-1.6289-0.074219-0.58203-0.46484-1.2422-0.89062-1.4375-0.38672-0.23438-2.6367-0.38672-5.0078-0.35156-3.6445 0.039062-4.2773 0.11719-4.3125 0.69922-0.19531 2.1719 0.46484 5.6289 1.6289 8.6953l0.73828 1.8633-0.94922 0.38281c-0.89062 0.35156-0.96875 0.54297-0.92969 3.0312 0.039063 2.1328-0.15625 3.0312-0.97266 4.6211-0.54688 1.0859-1.1641 3.1484-1.3984 4.582-0.46484 2.8008-1.2031 4.2656-2.2969 4.582-0.57812 0.15625-1.0469-0.58203-2.5664-3.9609-1.1992-2.6367-1.9023-4.8164-1.9766-6.0547-0.15234-1.7148-0.11719-1.832 0.26953-0.89453 0.54688 1.3984 0.93359 1.3594 1.4844-0.039063 0.77344-1.8242 0.14453-3.7305-1.9805-6.0586-1.1719-1.2812-1.832-2.2891-1.6367-2.5664 0.15234-0.26953 0.11719-0.34766-0.15625-0.19141-0.23438 0.11719-0.58203-0.078125-0.81641-0.42969-0.30859-0.58203-0.50391-0.62109-1.1641-0.23047-1.0078 0.62109-1.3203 0.62109-0.96875 0.039062 0.15234-0.26953 0.11719-0.3125-0.19531-0.15625-0.23438 0.15625-0.35156 0.46484-0.23438 0.66016 0.15625 0.19531 0.11719 0.58203-0.074219 0.81641-0.15234 0.26953-0.46484 2.25-0.69922 4.3438-0.19531 2.1328-0.58203 3.9219-0.81641 3.9922-0.23047 0.085938-0.96875-1.668-1.6641-4.0391-1.707-5.7109-1.7852-6.0938-1.0469-6.6758 1.0039-0.85156 0.69531-1.3984-1.0117-1.8633-1.3984-0.38672-1.8242-0.34766-2.5977 0.15625-0.77734 0.50391-0.96875 0.50391-1.2812 0.078125-1.0859-1.668-1.1328-1.9414-0.50391-2.9531 0.54297-0.77344 0.58203-1.1641 0.23437-1.9414-0.62109-1.3594-0.54297-1.4336 0.54297-0.73828 0.92969 0.58203 0.96875 0.58203 0.96875-0.078125s-1.0469-2.4062-3.3047-5.4375c-0.50391-0.69922-1.125-2.2891-1.3984-3.4961-1.2422-6.1328-1.8633-7.1836-4.4648-7.5781-0.62109-0.11719-1.0859-0.34766-1.0469-0.58203 0.039062-0.19531-0.23438-0.66016-0.62109-1.0078-0.66016-0.58203-0.77734-0.54297-1.8242 1.0078-0.77734 1.1641-1.125 2.1328-1.125 3.2266 0 1.3984-0.078125 1.5508-0.96875 1.5508-0.93359 0-0.96875 0.11719-1.0859 2.5273-0.078126 1.3984 0.11719 3.2578 0.38672 4.0781 0.46484 1.3594 0.42578 1.707-0.15625 2.9102-0.96875 1.8633-0.89062 3.8008 0.26953 5.5117 1.0469 1.5898 3.3438 3.1484 4.3125 2.9531 0.50391-0.078125 1.125 0.50391 1.5508 1.5508 0.039062 0.078124 0.54297 0.19531 1.1641 0.30859 1.4375 0.27344 1.7148 0.54297 0.46484 0.54297-0.85156 0-1.0469 0.27344-1.5898 2.3359-0.81641 2.8711-0.81641 3.2578-0.039062 3.9219 0.54297 0.42578 0.73828 0.38672 1.3203-0.34766 0.38672-0.46875 0.81641-0.85547 0.96484-0.85547 0.62891 0-0.26953 3.7305-1.3477 5.6328-1.0938 1.8594-1.4375 2.1719-2.918 2.5586-1.1641 0.27344-1.7852 0.69922-1.9805 1.2109-0.23438 0.73438 0 4.1953 0.42969 7.1055 0.19531 1.0859 0.15234 1.125-0.28125 0.27344-0.46094-0.93359-1.4336-1.1328-2.1328-0.42969-0.77734 0.77734-1.0469-2.8711-0.46484-6.3672 0.3125-1.7461 0.54297-3.3359 0.54297-3.5742 0-0.19531-0.69922-0.50391-1.5117-0.66016-0.86328-0.20313-2.1406-0.77734-2.8789-1.3203l-1.3164-1.0469-1.8984 0.89453c-2.1016 1.0078-2.1797 1.2422-1.2812 3.4961 0.53906 1.3594 0.77344 1.5508 1.8633 1.5508 1.668 0 2.6758 0.77734 2.4805 1.9414-0.19531 1.5195-0.96875 1.3203-3.1484-0.73828l-2.0547-1.9805-0.77734 1.0078c-0.69922 0.92969-0.81641 0.96875-2.6836 0.54297-1.0469-0.23438-3.9609-0.38672-6.4453-0.3125-4.3125 0.11719-4.582 0.078125-5.5117-0.77734-0.54297-0.50391-1.2031-1.4375-1.4727-2.1016-0.42578-1.0469-0.58203-1.125-2.2188-1.0469-1.668 0.11719-1.8203 0.039063-3.5664-1.8984-1.4844-1.7148-1.793-2.2578-1.6367-3.2266 0.078124-0.62109-0.11719-1.9414-0.50391-2.9531l-0.6875-1.7344-2.1797 0.26953c-1.2031 0.15625-2.5664 0.30859-3.0312 0.35156-0.42578 0.035156-0.73438 0.15234-0.66016 0.26953 0.078124 0.15625-0.69922 0.46484-1.7148 0.69922-2.3672 0.62109-3.4141 1.3164-4.1875 2.8711-0.35156 0.66016-0.50781 1.125-0.35156 0.92969 0.19531-0.15625 0.58203-0.039063 0.92969 0.26953 0.35156 0.27344 1.1641 0.62109 1.8242 0.73828 1.0078 0.19531 1.2773 0.078125 1.4336-0.50391 0.15234-0.58203 0.54688-0.77344 1.6367-0.77344 0.77734 0 1.8984-0.27344 2.5586-0.58203 0.62109-0.34766 1.3164-0.50391 1.4766-0.38672 0.19141 0.11719 0.42578 0 0.50781-0.23438 0.14453-0.42578 1.4727-0.078125 1.4727 0.42578 0 0.50391-1.5977 1.3594-4.6602 2.5273-2.7617 1.0547-4.9297 2.25-5.5117 3.0703-0.11719 0.19531 0 1.0547 0.30859 1.9414 0.3125 0.85547 0.66016 2.8789 0.81641 4.4297 0.23438 2.793 0.19531 2.8711-0.58203 2.6445-0.58203-0.19531-0.85547-0.078125-1.0469 0.58203-0.50391 1.5586-1.0547-0.15234-0.62109-1.9766 0.46484-2.1328 0.039062-3.5352-1.9805-6.0977-0.92969-1.1641-2.1719-2.7539-2.7539-3.5273l-1.1328-1.4375-3.9531 0.15234c-2.2188 0.039063-5.0117-0.078125-6.293-0.35156-2.4805-0.50391-6.4062-2.2109-7.8789-3.4141-0.89453-0.69922-0.89453-0.85156-0.42578-1.9805 0.46484-1.1641 0.54297-1.2031 2.9453-1.2031h2.4531l-0.11719-2.0547c-0.15625-2.4883-1.3984-5.4375-2.6445-6.2148-0.46484-0.34766-1.8984-0.77344-3.1094-1.0078-4-0.73828-5.1641-1.7461-10.406-9.0117-2.9531-4.1172-6.4062-7.5703-8.0742-7.9961-0.62109-0.15234-1.1641 0.039063-1.7852 0.62109-1.5508 1.4766-4.8945 1.9023-4.8945 0.66016 0-0.26953 0.77344-2.0938 1.7461-4.0391 1.2422-2.5664 1.5508-3.5742 1.1641-3.5742-1.2031 0-4.6602 2.5977-5.8242 4.4258-0.62109 0.93359-0.77734 1.0117-1.3203 0.46484-0.42578-0.46484-0.62109-1.9414-0.81641-6.5586-0.15234-3.2656-0.38672-6.1758-0.54297-6.4062-0.15625-0.27344-0.62109-0.46484-1.0117-0.46484-0.58203 0-0.69922 0.23437-0.54297 1.2422 0.15625 1.1641 0.039063 1.3984-1.5117 2.3359-2.4062 1.5117-3.1875 1.7852-2.8789 0.96875 0.19531-0.46484 0.039063-0.66016-0.50391-0.66016-0.42578 0-0.89062-0.039062-1.0469-0.074218-2.1328-0.54688-4.2734-0.58984-5.3203-0.15625-0.96875 0.38672-1.3984 0.38672-2.3672 0-1.8242-0.81641-3.8789-0.62109-6.1758 0.50391-2.0938 1.0078-3.3359 1.0078-3.3359-0.039063 0-0.81641 1.1641-1.0078 8.3438-1.3984 3.6523-0.15234 7.2617-0.54297 8.043-0.8125 1.4727-0.46484 2.3281-1.9023 1.1641-1.9023-0.38672 0-1.1641-0.26953-1.8242-0.62109-1.6367-0.89453-9.0117-0.69922-17.477 0.46484-1.4727 0.19531-1.4375 0.15234 0.73438-0.77734 2.832-1.2031 3.1094-1.4766 2.8008-2.7617-0.30859-1.1641-1.3164-1.707-1.8242-0.92969-0.23438 0.42578-1.0859 0.50391-3.6523 0.38672-1.8633-0.039063-3.2969 0.039062-3.2969 0.23438 0 0.19531 0.26953 1.1602 0.61719 2.1719 0.46484 1.3984 0.81641 1.8242 1.4375 1.8633 0.46484 0.035156 0.15625 0.19531-0.69922 0.34766-0.85547 0.15625-1.5977 0.19531-1.668 0.039063-0.62109-1.5117-1.2031-2.1719-2.0234-2.2891-1.3555-0.19141-2.7148-3.1484-2.7148-5.9414 0-1.7852-0.30859-2.7539-2.2109-6.4844-1.5898-3.1406-2.4062-4.3516-2.918-4.3516-0.36719-0.015624-0.6875 0.10156-0.6875 0.25781zm32.934 62.789c1.6289 0.81641 2.1328 0.89453 4.5469 0.62109 1.5195-0.15625 5.668-0.19531 9.3203-0.11719 6.0586 0.15625 6.6758 0.23438 7.4531 0.96875 1.2812 1.2031 1.0938 1.7852-0.54297 2.0625-4.5039 0.77734-5.2031 1.3555-3.4961 2.918 2.6445 2.4805 5.3984 3.0625 7.8047 1.5898 1.668-1.0547 2.0547-0.54297 0.8125 1.1641-2.3633 3.2656-3.2969 4.8555-3.2969 5.6719 0 1.3203-1.0938 1.125-3.1875-0.58203-1.4375-1.2031-2.0156-1.4766-2.9922-1.3203-1.2812 0.15625-1.6289 0.85547-1.4766 2.7539 0.078125 0.89453-0.19531 1.0469-3.2188 2.0234-5.1289 1.5977-5.4375 1.668-5.4375 0.77734 0-0.50391 0.35156-0.77734 1.3203-0.92969 2.5977-0.42578 5.1641-2.8008 4.3438-4.082-0.11719-0.23438-0.73828-0.58203-1.3984-0.77734-1.0859-0.38672-1.3203-0.30859-3.375 1.5195-1.2031 1.0469-2.2891 1.8984-2.4453 1.8984-0.38672 0-3.6133-2.3633-4.1562-3.0625-0.73828-0.92969-0.62109-1.125 0.73828-1.0469 0.96875 0.039062 1.2812-0.15625 1.3984-0.73828 0.23438-1.0078 1.125-1.6289 2.8711-1.9023 1.6367-0.26953 1.7461-0.65625 0.89453-2.3242-0.3125-0.58203-0.58203-1.1641-0.58203-1.2422 0-0.46484 0.93359 0 2.4883 1.2031 1.5977 1.1992 2.9531 1.7461 2.9531 1.1641 0-0.11719-0.35156-0.89453-0.77734-1.707-0.81641-1.668-2.3281-2.5273-5.0859-2.918-0.96875-0.15234-2.3672-0.65625-3.0312-1.1641-1.2422-0.93359-1.7812-0.93359-4-0.039062-0.62109 0.23047-0.69922 0.039062-0.69922-1.5195 0-0.96875 0.078125-1.7812 0.19531-1.7812 0.11719-0.011719 1.0508 0.41406 2.0586 0.91797zm22.289 44.809c0.078125-0.23438 0.38672-0.3125 0.62109-0.15625 0.35156 0.19531 0.26953 0.58203-0.30859 1.3945-1.0547 1.4766-0.96875 2.1797 0.30859 3.6914 0.58203 0.69922 1.3594 1.7539 1.7461 2.2891 0.46484 0.66016 1.0469 1.0078 1.7852 1.0078 0.92969 0 1.125 0.23438 1.7461 2.1406 0.81641 2.5977 1.5195 3.0234 4.7383 2.8281 2.1328-0.11719 2.7148-0.34766 4.6992-1.7852 4.543-3.3359 6.832-3.8477 10.871-2.4023 2.5273 0.89062 2.9531 1.1992 2.7617 2.0938-0.078125 0.54297-0.46484 0.46484-2.6055-0.54297-2.793-1.3203-4.4297-1.5117-6.2109-0.77734-1.707 0.69922-1.5508 1.3203 0.27344 0.96875 2.2891-0.42578 2.918-0.42578 3.0703 0.039063 0.078124 0.27344-0.3125 0.58203-0.89063 0.69922-0.74609 0.19531-0.97266 0.46484-0.81641 0.96875 0.15234 0.58203-0.19531 0.77734-2.1328 1.125-1.3203 0.23047-2.832 0.81641-3.4219 1.3203-0.61719 0.50391-1.9375 1.5977-2.9531 2.4453-1.7852 1.5195-1.8984 1.5508-4.7383 1.5508-2.8398 0-2.8711 0-4.1172 1.4375-1.4727 1.7812-2.7148 2.25-5.7852 2.25-1.707 0-2.9922-0.27344-4.3906-0.93359-2.2461-1.0547-5.3203-3.6133-4.9727-4.1562 0.11719-0.19531 0.039062-0.30859-0.15234-0.27344-0.62109 0.19531-5.6328-5.4727-5.3594-6.0938 0.11719-0.3125 0.46484-0.46484 0.73828-0.35156 0.69922 0.23438 2.793 3.1484 3.1406 4.3125 0.19531 0.61719 0.69922 0.92969 1.7148 1.0859 0.77734 0.15625 2.0156 0.42578 2.7148 0.66016 1.1992 0.35156 1.3984 0.27344 3.4141-1.6367 2.0547-1.9414 2.1719-2.0234 3.8477-1.7852 0.92969 0.15625 1.7852 0.11719 1.9023-0.078125 0.074219-0.15625-0.23438-1.5117-0.77734-3.0312-1.2031-3.2188-2.4883-8.4688-2.4883-10.02 0-1.082 0.039062-1.082 0.93359-0.46484 0.66797 0.44922 1.0156 0.48828 1.0938 0.17969zm51.566 57.547c-0.35156 0.84375-0.35156 1.4336-0.039062 2.4023 0.3125 0.85156 0.3125 1.3203 0.039062 1.3945-0.19531 0.089844-0.39062 0.39062-0.39062 0.66016 0 0.3125-0.38672 0.58203-0.85156 0.66016-0.62109 0.085937-1.0078 0.54297-1.3164 1.4766-0.34766 1.0117-0.77344 1.4766-1.8633 1.9023-0.77344 0.3125-1.5117 0.42578-1.6289 0.35156-0.30859-0.35156 1.6289-4.8555 2.9922-6.9453 0.69922-1.125 1.3984-1.7852 1.668-1.6367 0.23438 0.11719 0.30859 0.085938 0.11719-0.085937-0.15625-0.18359 0.11719-0.73828 0.58203-1.2305 0.99609-1.0898 1.3438-0.58594 0.69141 1.0508zm224.12 2.5195c0.54297 1.9766 0.54297 2.1406-0.085938 2.1406-0.33984 0-1.1211 0.61719-1.7422 1.3945-1.0859 1.3555-1.2109 1.3984-2.9531 1.1641l-1.8242-0.23438-0.23047 1.2812c-0.15234 0.73828-0.15234 1.6367 0 1.9805 0.15234 0.38672 0.039062 0.61719-0.27344 0.65625-0.30859 0.042969-0.89453 0.078125-1.3203 0.11719-0.42578 0-0.77734 0.26953-0.73438 0.50391 0.039063 0.27344 0.085937 0.73828 0.11719 1.0469 0 0.35156 0.69922 0.66016 1.707 0.81641 3.8867 0.66016 3.9648 1.7188 0.11719 1.6758h-2.918l-0.11719-1.7852-0.11719-1.7812-2.8672-1.082c-1.5977-0.62891-3.9258-1.2148-5.1758-1.3672-2.3633-0.23047-2.5195-0.42578-2.0156-2.3633 0.23438-0.85156 0.27344-0.85156 3.4961 0.88672 1.8242 0.97266 3.6172 1.7539 4.043 1.7539 0.69531 0 0.69531-0.085937 0.15234-1.3594-0.77344-1.8984-0.73828-3.0625 0.15625-2.7109 2.0234 0.77734 2.6445 0.65625 3.6445-0.66016 0.92969-1.2109 0.97266-1.3984 0.46875-2.3672-0.3125-0.58203-0.46875-1.0547-0.3125-1.0547 0.11719 0 1.4336 0.66016 2.8672 1.4375 2.7617 1.5195 3.5 1.5586 2.7227 0.11719-0.69531-1.3203-0.15234-2.3281 1.3203-2.3281 1.2148-0.011719 1.2969 0.10547 1.875 2.1211zm-218.96 4.0391c0.078125 0.38672 0 1.0078-0.19531 1.3594-0.50391 0.89062-0.15625 1.1641 0.81641 0.61719 0.69922-0.35156 0.81641-0.3125 0.81641 0.46484 0 1.2812-1.0547 2.6484-2.5664 3.2656-1.5195 0.62109-1.6289 1.0078-0.54297 2.0938l0.77734 0.77734-2.9453 3.4961c-2.0625 2.4883-3.2969 3.5781-4.1562 3.8086-1.4766 0.42578-1.9805 0.085938-1.6367-1.0859 0.19531-0.65625 0.46484-0.77344 1.3594-0.58203 0.85547 0.19531 1.2422 0 2.0625-0.97266 1.0859-1.2422 1.0859-2.4805 0.078125-5.4375-0.42578-1.2031-0.38672-1.5508 0.35156-2.793 0.54297-0.97266 1.0859-1.4727 1.668-1.4727s0.93359-0.35156 1.2422-1.25c0.96875-2.7227 2.4453-3.918 2.8711-2.2891zm22.793 32.34c0 0.66016-0.42578 1.0938-1.5508 1.5977-0.85547 0.38672-1.5586 0.97266-1.5586 1.2812 0 0.66016 0.89062 0.50781 2.8008-0.46484 1.3984-0.73828 1.4727-0.69922 1.4727 0.37891 0 0.70703-0.27344 0.97266-1.2422 1.1719-1.9375 0.38672-2.2578 0.85156-2.0234 3.0703 0.15625 1.6289 0.042969 2.2109-0.58203 2.9844l-0.81641 0.97266v-0.89453c0-0.46094-0.19531-0.85156-0.42578-0.85156-0.46484 0-0.23438 1.793 0.81641 6.2109 1.25 5.0508 6.4102 21.246 7.1836 22.52 0.15234 0.23438 0.42578 2.0625 0.58203 4.0039 0.15625 1.9805 0.39062 3.8477 0.46484 4.1562 0.11719 0.58203-0.15625 0.61719-1.3203 0.19141-0.50391-0.19141-0.69922-0.074219-0.69922 0.42578-0.035157 0.89453-0.81641 2.2461-1.3594 2.3672-0.50391 0.085937-0.69922-10.367-0.23437-11.641 0.26953-0.70703 0.23437-1.0859-0.11719-1.3984s-0.66016-0.11719-1.1641 0.73828c-0.69922 1.1992-1.3984 1.5508-1.3984 0.66016 0.039062-0.23437 0.19531-1.2109 0.35156-2.1445 0.30859-1.5859 0.26953-1.707-0.81641-2.2461-0.81641-0.42578-1.0547-0.77734-0.90234-1.3164 0.39063-1.2031-0.50391-1.25-1.1992 0-0.77734 1.2812-1.707 1.8242-1.707 1.0078 0-0.30859-0.69922-1.8984-1.5508-3.5391-0.85547-1.625-1.4375-3.1367-1.3203-3.3359 0.11719-0.19141 0-0.3125-0.23438-0.26953-0.23438 0.078126-0.77344-0.73828-1.1992-1.7539-0.69922-1.7461-0.69922-1.8594-0.039063-2.0547 2.1719-0.69922 2.2109-0.81641 0.42578-1.0859-3.2969-0.5-3.8477-2.3672-1.5508-4.9688 0.89063-1.0117 1.0469-1.5586 0.89063-2.6055-0.15625-1.2109-0.11719-1.2812 0.73437-1.0117 0.50391 0.15625 1.4336 0.54688 2.0625 0.85156 1.5508 0.81641 2.1719 0.11719 1.2812-1.3945-1.0117-1.7148-0.85156-3.457 0.3125-4.0039 0.73438-0.30859 1.0859-0.30859 1.5508 0.085937 0.54297 0.46484 0.69922 0.42578 1.0078-0.042968 0.54297-0.85156 0.42578-1.4336-0.35156-1.8594-0.38672-0.19531-0.89062-1.0117-1.125-1.7852-0.42578-1.3594-0.38672-1.4336 1.3594-3.1094 2.0273-1.9453 3.1914-2.2539 3.1914-0.89844zm-16.895 8.4648c0.125 0.19531-0.035156 0.85156-0.34766 1.4844-0.62109 1.1602-0.27344 2.0117 0.81641 2.0117 0.69922 0 0.62109 0.58984-0.078125 1.1719-0.46484 0.37891-0.58984 1.1211-0.50781 2.8672l0.11328 2.375 1.6758-0.078125c1.3555-0.042969 1.6289 0.039062 1.6289 0.66016 0 0.46875-0.38672 0.8125-1.1641 0.96484-0.96875 0.23438-1.668-0.039063-3.8477-1.3086-1.4336-0.89062-2.8281-1.5898-3.0625-1.5898-1.0859 0-0.35156-1.1211 1.2812-1.9492 1.0469-0.54297 1.2422-0.92969 1.7812-3.6836 0.34766-1.7148 0.66016-3.1484 0.69922-3.2188 0.12109-0.25 0.78125-0.050781 1.0117 0.29297zm-4.418 11.414c1.668-0.23438 2.0547-0.11719 3.2188 0.78516 2.0234 1.5195 2.4062 3.8008 1.8242 10.176-0.26953 2.7539-0.54297 5.0781-0.66016 5.1562-0.078126 0.085937-0.46875-0.50781-0.81641-1.3555-0.54297-1.1641-0.69922-2.7109-0.77734-6.7539-0.039063-2.8789-0.078126-5.3242-0.078126-5.3984-0.039062-0.085937-0.27344 0.074219-0.54297 0.30859-0.62109 0.50781-1.0469 0.19141-1.0469-0.81641 0-0.92969-1.2422-0.88672-1.8633 0.085938-0.89453 1.4336-1.6289 0.96875-1.5898-1.0859 0-1.0078 0.11719-1.5898 0.23438-1.3281 0.11328 0.34375 0.69141 0.42969 2.0977 0.22656zm9.1211 15.266c1.4766 0.23047 1.707 1.0078 1.707 5.5117 0 2.9453 0 2.9453 1.5898 4.5078 0.89453 0.84375 1.7461 1.8984 1.9023 2.3242 0.50391 1.2812 0.035156 2.7891-0.89453 3.0625-1.8984 0.51562-2.0156 0.38672-2.6758-3.1758-0.93359-4.8164-2.0625-8.2383-3.4141-10.215-1.3945-2.1016-1.5117-2.8711-0.26953-2.5195 0.46094 0.15234 1.3945 0.34766 2.0547 0.50391z"/>
  <path d="m364.35 168.54c-0.54688 0.19531-1.7812 0.46484-2.793 0.58203-1.3945 0.19141-1.8594 0.38672-1.8594 0.89062 0.078126 2.3359 4.1953 9.0117 5.5547 9.0117 0.46094 0 1.4336-0.62109 2.207-1.3594 1.2812-1.2812 1.7148-1.3984 4.207-1.6289 3.5273-0.3125 4.2617-0.73828 3.6016-2.2891-1.5625-3.6562-7.4648-6.4922-10.918-5.207z"/>
  <path d="m259.9 169.86c-0.54297 0.30859-1.9414 0.50391-3.1875 0.46484-1.1992-0.039063-2.1328 0.078125-2.0156 0.19531 0.078125 0.15625-1.25 1.0859-2.918 2.1016-2.4414 1.4336-3.1758 2.0547-3.5352 3.0625-0.23438 0.77734-1.0469 1.707-2.1719 2.4883-1.4336 1.0547-1.7461 1.4375-1.6289 2.3281 0.078126 0.62109 0.46484 1.2031 1.0078 1.4336 0.66016 0.30859 0.85156 0.69922 0.85156 1.8242 0 0.81641 0.11719 1.4766 0.30859 1.4766 0.38672 0 5.0859 0.73828 6.4062 1.0078 2.0234 0.42969 1.0195 0.73828-2.5195 0.85547-4.1953 0.078125-6.4453 0.38672-6.7578 0.89453-0.50391 0.8125 0.42578 2.8711 1.9414 4.3906 1.668 1.707 3.1484 2.3672 9.8633 4.543 2.8008 0.89453 4.4648 1.668 5.5508 2.5977 0.85547 0.73828 1.4766 1.4375 1.3594 1.5586-0.11719 0.11328 0.078125 0.42578 0.46484 0.69922 0.58984 0.46484 0.42969 0.50391-1.082 0.54297-1.3594 0-2.2891-0.3125-3.8867-1.3203-3.9141-2.4805-3.8398-2.4453-9.043-2.6758-4.5039-0.15234-4.9727-0.11719-5.3203 0.50391-0.58203 1.125-0.46484 2.2188 0.69922 5.8633 0.85156 2.8008 1.2031 3.457 1.9414 3.6523 0.54297 0.11719 0.77344 0.38672 0.62109 0.65625-0.19531 0.27344-0.11719 0.3125 0.19141 0.11719 0.26953-0.15234 1.2891 0.27344 2.4141 1.0117 2.0938 1.4336 2.9102 2.9531 3.3711 6.3672 0.27344 1.9414 0.3125 1.9414 2.4531 2.793 2.793 1.125 7.3359 1.8242 9.5547 1.4727 0.92969-0.11328 2.7148-0.73438 4-1.3203 1.9375-0.92969 2.5195-1.0469 4.3516-0.8125l2.0547 0.26953 1.5195-1.668c0.85156-0.93359 1.7461-1.707 2.0156-1.707 0.28125 0 0.78516 0.58203 1.1328 1.3164 0.62109 1.3203 1.9414 2.1719 3.375 2.1719 0.81641 0 0.81641 0-0.074218 0.97266-0.51563 0.54297-0.86328 1.0078-0.74609 1.0859 0.93359 0.66016 6.4844 1.9414 8.5469 1.9805 3.4961 0.039062 4.2344-0.58203 4.2344-3.6836 0-2.6836-0.69922-3.3828-2.4531-2.4883-0.93359 0.46484-1.0859 0.46484-1.4336-0.19141-0.58203-1.0859-0.46484-1.5195 0.30859-1.3203 0.42578 0.11719 1.1641-0.3125 2.0234-1.2031l1.3594-1.3984 0.42578 1.2812c0.42578 1.2422 0.42578 1.2422 0.92969 0.46484l0.50391-0.85156 0.66016 0.81641c1.0938 1.3203 1.9414 0.62109 2.0234-1.668 0-1.0547 0.039062-2.1719 0.078125-2.4453 0.039063-0.26953-0.38672-0.46484-0.96875-0.46484-0.73828 0-1.4375-0.50391-2.4531-1.668-0.77344-0.92969-1.3945-1.8633-1.3945-2.0547 0-0.19531-0.58203-0.35156-1.2812-0.35156-1.25 0-1.3672-0.11719-2.918-3.4219l-1.6289-3.375 0.039062-8.1523c0-4.5078-0.19531-8.7422-0.38672-9.4414-0.35156-1.1641-0.30859-1.2422 0.3125-1.0469 0.54297 0.15625 0.77734-0.035156 0.96875-0.96875 0.11719-0.66016 0.73437-1.7461 1.3945-2.3672 1.7852-1.8203 1.4727-4.0391-0.77344-5.2031-1.1641-0.58203-3.3438-0.77734-4.4297-0.34766-0.96875 0.38672-0.73828 2.3281 0.54297 4.8945 1.0469 2.0547 1.6758 4.1172 0.8125 2.6367-0.54297-0.89062-4.7773-5.0469-5.125-5.0469-0.62109 0-1.5117 2.3359-1.8984 4.9336-0.19531 1.4375-0.39062 4.6602-0.39062 7.1445 0 3.5273-0.11719 4.6211-0.58203 5.0117-0.93359 0.77344-1.3672-1.0859-1.25-5.3594 0.078125-3.5742 0-3.8789-1.1992-6.1758-0.66016-1.3203-1.2422-2.8008-1.2422-3.2656 0-0.69922-0.15625-0.77734-1.0469-0.54297-1.7148 0.38672-1.9102 0.85547-1.1328 2.2891 0.39062 0.73828 0.58203 1.5195 0.46484 1.7461-0.35156 0.54297-3.5 1.9805-4.3438 1.9805-0.58203 0-0.58203-0.11719 0.15234-0.89062 1.0469-1.125 1.0859-2.0625 0.078126-3.6914-0.42578-0.69922-0.69922-1.4336-0.58203-1.6289 0.11719-0.23437 0-0.26953-0.3125-0.15625-0.30859 0.11719-0.78516-0.078124-1.0547-0.42578-0.26953-0.30859-0.73438-0.58203-1.0469-0.58203-0.30859 0-0.42578-0.15234-0.30859-0.38672 0.66016-1.0859-0.96875 0.23438-2.1328 1.7461-1.4453 1.8242-1.793 1.9805-2.7227 1.3594-0.50391-0.35156-0.50391-0.42578 0.035157-0.77344 1.832-1.0859 2.375-1.832 2.5664-3.5742 0.15625-1.4336 0.078125-1.9023-0.62109-2.5977-0.92578-0.94922-2.4727-1.0664-3.9102-0.28906z"/>
  <path d="m322.69 170.21c-0.15234 0.39062-0.54297 0.50391-1.2109 0.39062-1.5117-0.3125-2.2852 0.54297-2.0156 2.2109 0.19531 1.2812 0.15625 1.3984-0.77344 1.3594h-1.0117l0.085938 6.1758c0 3.4141 0.23047 7.0664 0.46484 8.1133 0.42578 2.0625 1.8242 3.7617 3.0234 3.7617 1.0859 0 2.1016-2.5664 2.1328-5.3984v-2.4453l2.0234 0.19531c1.707 0.19141 2.0938 0.074219 2.7617-0.62109 1.7461-1.9414 5.1289-9.2852 5.1289-11.148 0-1.2383-1.6367-1.7812-3.6172-1.2383-1.4766 0.38672-1.7812 0.35156-2.9844-0.46484-1.8711-1.1992-3.7305-1.6289-4.0078-0.89062z"/>
  <path d="m355.14 169.97c-1.0547 0.19531-4.3906 3.1484-5.125 4.5469-0.3125 0.54297-0.73828 0.85156-0.97266 0.73828-0.23438-0.11719-0.3125-0.11719-0.15234 0.035157 0.15234 0.19531-0.078125 1.1641-0.50391 2.2109-0.85547 2.2188-1.0117 6.4844-0.23438 7.4141 0.23438 0.3125 0.73828 0.73828 1.125 0.93359 0.58203 0.30859 0.54688 0.54297-0.27344 2.4883-1.0469 2.4453-0.89062 2.832 1.7852 4.3438 1.6289 0.89453 1.8984 1.5898 1.6289 3.8086-0.26953 1.9414-1.1328 1.8633-0.96875-0.078126 0.074219-1.2031-0.078125-1.4766-1.7852-2.6367-1.0469-0.69922-2.0938-1.5977-2.3281-1.9805-0.81641-1.3203-1.7852-7.1836-1.7852-11.258-0.039063-4.082-0.039063-4.1211 1.3984-6.4102 1.0078-1.668 1.3203-2.4023 1.0078-2.7539-1.4766-1.7852-8.1992 1.6289-10.293 5.2031-1.8203 3.1016-2.0938 5.3203-1.8203 13.781l0.26953 7.6484 1.0078 0.38672c0.54688 0.23438 1.7148 0.42578 2.5664 0.42578 2.2891-0.035156 2.793 0.11719 3.7305 1.3203 0.8125 1.0078 0.8125 1.0859 0.11328 0.89062-0.38672-0.11719-1.3594-0.3125-2.0938-0.46484-0.73828-0.15234-1.6758-0.34766-2.0156-0.42578-0.58203-0.19531-0.70703 0.039063-0.70703 1.4727 0 1.7148 0.39062 2.4453 2.6836 5.2812 1.2383 1.5195 1.4727 1.6367 3.2266 1.6367 1.3555 0 1.8594-0.15625 1.8594-0.54297 0-1.2031 0.81641-0.93359 2.9531 0.92969 2.0234 1.7852 2.2891 1.9023 2.8789 1.3594 0.54297-0.46484 2.0117-0.66016 6.875-0.77734 3.4102-0.078125 6.7461 0 7.4102 0.19531 1.4727 0.39063 1.7148 0.11719 1.25-1.5117l-0.34766-1.2031h3.0195c3.6914 0 4.6641-0.54297 4.1172-2.2188-0.23047-0.66016-0.93359-1.3555-1.8594-1.7812-2.7617-1.3594-1.1719-1.9805 2.168-0.81641 1.7852 0.62109 2.8789 1.668 2.3008 2.2969-0.15625 0.19531-0.089844 0.19531 0.15234 0.074218 0.23047-0.11719 0.6875 0.27344 1.0742 0.89453 0.58984 1.0469 0.74609 1.0859 1.6367 0.69922 1.082-0.50391 1.7148 0 1.7148 1.3203 0 0.50391 0.30859 0.69922 1.125 0.69922 1.625 0 3.6836 1.5508 3.8398 2.9102 0.11719 0.85156-0.11719 1.3594-0.85156 1.9414-0.92969 0.73438-0.97266 0.92969-0.58203 2.0547 0.24219 0.69922 0.62109 1.2422 0.85156 1.2422 0.24219 0 1.3594-0.89062 2.4531-1.9805l2.0117-1.9805 1.8242 1.3984c1.4844 1.0938 1.9805 1.2812 2.5664 1.0078 0.58203-0.34766 0.96875-0.11719 2.1328 1.1641 0.77734 0.85156 2.5273 2.4453 3.8789 3.5273 1.3672 1.125 2.375 2.1719 2.25 2.3359-0.11719 0.19531 0 0.35156 0.23047 0.35156 0.74609 0 1.9492 2.4805 1.9492 3.9609 0 0.81641-0.62109 3.2578-1.3945 5.4375-1.9883 5.6328-2.4531 7.4141-2.1016 8.0352 0.15234 0.3125 1.2422 1.1641 2.3672 1.9414 1.1641 0.77734 2.0938 1.668 2.0938 1.9805 0 0.77734-3.5352 3.3828-5.5938 4.082-1.0078 0.35156-3.1016 0.58203-4.9297 0.58203-3.457 0-3.6445 0.11719-3.6445 2.4453 0 0.77734-0.35156 1.5977-1.0117 2.25-0.85547 0.89453-0.96875 1.3203-0.77734 2.3672 0.54688 2.832 2.7539 5.0469 5.5898 5.5898 1.125 0.23438 1.4766 0.078125 2.7617-1.1641 0.77734-0.77734 1.6289-1.3984 1.9023-1.3984 0.23047 0 0.58203-0.69922 0.69531-1.5586 0.27344-1.6641 0.37891-1.7031 3.3438-0.77344 1.2422 0.38672 1.4727 0.19531 1.4727-1.2422s0.62109-2.6445 1.3672-2.6445c0.38672 0 0.58203 0.42578 0.58203 1.3594 0 1.4766 0.38672 1.707 1.3203 0.73828 0.69531-0.66016 0.61719-0.69922 4.1484 1.8633 2.6836 1.9414 5.168 2.793 6.793 2.4062 1.2422-0.3125 1.7188 0.26953 1.7188 2.25 0 1.4766 1.0078 2.9922 2.0508 3.0703 1.8242 0.15234 7.5703-0.15625 8.3086-0.46484 0.73438-0.26953 0.96875-0.15234 1.4766 0.81641 0.73438 1.4375 2.3242 1.7852 6.5586 1.3203 1.707-0.19531 5.0117-0.35156 7.3008-0.35156 2.2461 0 4.2266-0.11719 4.3906-0.26953 0.15234-0.15625-0.078125-1.0547-0.54688-1.9805-1.0117-2.0625-2.9922-3.2656-7.8047-4.6602-1.8242-0.54297-3.8477-1.2109-4.4648-1.5195-2.3281-1.0078-6.0195-3.4961-6.0195-3.9922 0-0.54297 0.77734-0.42969 3.375 0.61719 0.93359 0.38672 1.4453 0.38672 2.2188 0.039062 1.1211-0.50391 1.707-0.34766 3.8086 0.96875 1.6289 1.0078 2.9805 1.125 5.5898 0.46875 1.5859-0.42969 1.8203-0.39062 2.6758 0.42578 1.2812 1.2031 1.7539 0.69922 1.6367-1.6367-0.11719-1.7461-0.3125-2.1328-1.9805-3.8008-1.082-1.1328-1.7461-2.0625-1.5898-2.3359 0.19531-0.30859 0.66016 0 1.3945 0.85547 1.0547 1.2031 1.0938 1.2422 1.125 0.38672 0.042969-2.2891-3.6406-6.1328-6.2891-6.5234-1.5469-0.27344-1.5469-0.35156-0.81641-2.3281 0.085938-0.23438-0.11328-0.66797-0.46484-0.93359-0.50391-0.42969-0.73438-0.38672-1.3594 0.19141-0.89062 0.81641-0.92969 0.77734-1.4336-0.77344-0.42578-1.3203-2.0938-1.9414-4.7031-1.6367-1.5117 0.15625-1.7422 0.078125-2.8672-1.2422-0.66016-0.77734-1.7539-1.7852-2.4141-2.2891l-1.2031-0.89062-0.65625 0.81641c-0.78516 0.96875-1.0859 0.96875-1.0859 0.078126 0-0.81641-1.125-2.0156-1.8633-2.0156-0.27344 0-0.46484-0.39062-0.46484-0.85156 0-0.81641 0-0.81641 0.8125-0.078125 0.97266 0.89062 2.1016 0.34766 2.1016-1.0547 0-0.66016-0.42578-1.1641-1.5508-1.7852-1.4727-0.81641-1.5195-0.89453-0.50391-0.89453 1.3164 0 1.707-0.62109 0.92969-1.5195-0.81641-0.89062-0.77344-1.0859 0.15625-1.5898 0.61719-0.34766 0.96875-0.19141 1.9805 0.77734 0.65625 0.62109 2.1328 1.4766 3.2266 1.9023l1.9766 0.73438 0.89063-0.81641 0.93359-0.85156-0.19531 1.2812c-0.15625 0.96875-0.039063 1.3594 0.42969 1.5195 0.73828 0.26953 3.9531 2.7539 4.5469 3.5273 0.26953 0.3125 0.83984 0.42969 1.5469 0.3125 0.66016-0.078125 1.9414-0.19531 2.8711-0.19531l1.7148-0.039062-0.27344-1.5898c-0.15234-0.89453-0.69531-2.3672-1.25-3.3047-1.0078-1.7461-0.92578-2.6758 0.20312-2.4062 0.60938 0.19531 0.84375-0.85547 0.96875-4.9336 0.042969-1.4336-0.035156-1.5508-1.0547-1.668-1.3555-0.15234-1.2812-1.2812 0.11719-1.6289 0.90234-0.23438 0.98047-0.38672 0.85547-2.3672-0.078125-1.1641-0.34766-2.3359-0.61719-2.6055-0.90234-0.89453-3.5781-1.0469-4.7812-0.23437-0.62109 0.38672-1.1328 0.62109-1.1328 0.50391-0.035156-0.078125-0.42188 0.27344-0.88672 0.81641l-0.78516 0.96875-0.035156-2.0234c0-1.0859-0.15625-2.0938-0.35156-2.2109-0.15234-0.11719-0.89062 0.58203-1.5977 1.5508l-1.2422 1.7852-1.5195-1.4727c-0.92578-0.93359-1.4336-1.7148-1.3086-2.0625 0.11719-0.35156 0.11719-0.46484-0.039063-0.30859-0.15625 0.15234-0.58203 0-0.98047-0.35156-0.62109-0.54688-0.77734-0.54688-1.8633 0-1.5469 0.8125-1.625 0.77344-1.1992-0.38672 0.27344-0.73828 0.27344-1.2031-0.042968-1.5508-0.69531-0.85156-1.0742-0.66016-2.2109 1.1992-0.96875 1.6289-1.1641 1.7461-2.2109 1.5195-2.0234-0.42578-3.7305-1.3945-4.1211-2.3672-0.34766-0.89062-0.46094-0.93359-3.9219-0.89062-5.2695 0.078124-5.3594 0.078124-4-0.54297 2.4531-1.0938 3.2188-3.3438 1.3203-3.9219-1.0547-0.35156-0.92969-0.93359 0.34766-1.2109 2.1406-0.46484 2.375-0.58203 2.6484-1.3945 0.38672-1.2031-0.50781-1.5117-3.8086-1.2383-3.5781 0.26172-3.8516-0.11719-1.6758-2.2188 1.7812-1.7461 1.7148-2.4531-0.38672-3.4609-2.1797-1.0469-3.0625-0.89062-3.2188 0.50391-0.15625 1.1328-0.77734 1.3594-1.5977 0.54688-0.37891-0.38672-0.65625-0.23438-1.4336 0.69922-0.50391 0.62109-0.93359 1.0469-0.93359 0.93359 0-0.58203 1.2422-2.6055 2.1406-3.457 1.2812-1.2031 1.2422-2.25-0.039063-2.5664-1.0117-0.26953-3.7227 0-4.9336 0.46484-0.46484 0.15234-0.66016 0.035156-0.66016-0.39062 0-0.62109-0.074219-0.62109-0.85156-0.078125-1.1992 0.85156-1.3477 0.77734-1.5859-0.50391-0.3125-1.5195-1.3594-1.8633-1.8242-0.58203-0.23438 0.54297-0.38672 1.3203-0.38672 1.707 0 0.77734-1.0547 1.5508-2.0938 1.5508-0.35156 0-0.62891-0.15625-0.62891-0.38672 0-0.19531 0.11719-0.35156 0.32031-0.35156 1.3555 0.23438 2.0156-0.11719 2.0156-1.0078 0-1.1992-0.62109-1.2422-1.5898-0.11719-1.0117 1.2422-0.96875 0.15625 0.078125-1.8242l0.8125-1.5117-1.3906-1.3203c-1.5195-1.3594-2.9922-1.5508-3.1875-0.38672-0.19141 1.4727-1.0117 3.375-1.5195 3.5352-0.54297 0.23437-2.168-1.9414-2.6758-3.5352-0.38672-1.1641-0.81641-1.0859-2.0156 0.50391-1.2812 1.707-1.7461 1.4375-0.73828-0.42578 1.0547-1.9805 0.5-3.4141-1.4375-3.5742-1.1602-0.11719-1.4336-0.26953-1.6289-1.2422-0.19141-1.0547-0.38672-1.1641-2.25-1.4336-2.4453-0.35156-5.1562-0.35156-6.5625 0-1.3594 0.35156-2.0898 2.1719-2.0898 5.0117 0.035156 1.7461-0.085937 2.1328-0.47656 1.7852-0.26172-0.23438-0.5-0.73438-0.5-1.125 0-0.93359-0.69922-1.2812-1.3594-0.73828-0.46484 0.38672-0.58203 0.34766-0.58203-0.30859 0-1.0117-0.54688-1.3984-1.0938-0.73828-0.19141 0.23438-0.69531 1.4727-1.082 2.6836-0.37891 1.2422-0.77344 2.1328-0.89062 2.0234-0.11719-0.11719-0.15234-1.8242-0.11719-3.8086l0.11719-3.6445-1.9414-2.2188c-1.3594-1.5508-1.9805-2.5977-1.9805-3.3047-0.007812-1.9883-1.918-3.2695-4.1719-2.8047zm58.824 55.992c1.0117 0.42578 2.6836 0.85156 3.6953 1.0078 1.9766 0.3125 2.4414 0.69922 2.75 2.2188 0.15625 0.89453 0 1.0859-1.1211 1.4727-0.74609 0.23438-1.4453 0.77734-1.5586 1.1641-0.19141 0.58984-0.50391 0.69922-1.5508 0.50391-1.3164-0.19141-1.3164-0.19141-1.0117 0.93359 0.19531 0.66016 0.19531 1.3984 0.039063 1.707-0.19141 0.26953-0.23047 0.66016-0.15234 0.81641 0.11719 0.15625 0.042968 0.30859-0.15234 0.30859-0.46484 0-0.85156-0.92969-0.85156-1.9375 0-0.38672-0.58203-1.4766-1.2812-2.4062-1.125-1.4336-1.3203-2.0547-1.3945-4.1172-0.042968-1.4375 0.074219-2.4062 0.3125-2.4062 0.22266 0 1.2305 0.34766 2.2773 0.73438zm7.4531 18.754c1.0117 0.81641 1.4766 2.1719 0.94141 2.7148-0.11719 0.15625-0.54297-0.078125-0.97266-0.50391-1.0547-1.0547-1.5195-0.93359-1.5195 0.38672 0 0.81641-0.23438 1.2383-0.81641 1.3984-0.89063 0.30859-2.8008-0.50391-2.4453-1.0078 0.11719-0.19531-0.042969-0.23438-0.35156-0.11719-0.30859 0.11719-0.69531 0-0.85156-0.23438-0.35156-0.54297 0.54688-1.2422 1.2422-0.96875 1.0195 0.35156 0.89453-0.62109-0.26953-2.1719-0.62109-0.89453-1.1719-1.7852-1.1719-1.9414 0.003907-0.50391 4.9453 1.4766 6.2148 2.4453z"/>
  <path d="m309.33 170.6c-1.7539 0.66016-1.9023 0.92969-1.0859 1.8633 0.66016 0.66016 0.66016 0.85547 0.19531 1.1328-0.85547 0.53906-1.1719 0.46484-1.3984-0.3125-0.11719-0.35156-0.39062-0.97266-0.58203-1.3594-0.19531-0.39062-0.26953-0.85547-0.15625-1.0469 0.11719-0.23438-0.039063-0.27344-0.35156-0.15625-0.30859 0.11719-0.66016 0.42969-0.73438 0.73828-0.11719 0.27344-0.81641 0.58203-1.5977 0.73828l-1.3555 0.26953 0.58203 1.5898c0.30859 0.85547 0.54297 1.5977 0.54297 1.6367 0 0.039063-0.58203 0.039063-1.2422 0.039063-1.0469 0-1.2422 0.11719-1.1641 0.77734 0.078125 0.42969 0.65625 1.3203 1.2812 1.9414 1.3203 1.3984 1.3203 1.5977 0.50391 3.6914-0.73828 1.8242-1.5195 2.0156-1.8242 0.46484-0.26953-1.4375-1.7031-3.1875-2.5977-3.1875-1.4375 0-1.4375 4.1562 0.035156 7.0273 0.39063 0.77734 1.6758 2.6055 2.9102 4.082 2.1797 2.6445 3.6523 5.2812 3.7695 6.7539 0.035156 0.54688 0.53906 0.85547 1.9375 1.2031 1.0117 0.23047 1.9805 0.34766 2.1016 0.19531 0.19141-0.19531 0.34766-0.92969 0.46484-2.6836 0.039063-0.58203 0.23438-0.65625 1.2031-0.46484 0.92969 0.19531 1.4336 0 2.7227-1.0078l1.5508-1.2422v-4.2344c0-4.0391-0.039063-4.2266-0.73828-4-0.66797 0.19531-0.8125 0-1.0547-1.2422-0.15625-0.81641-0.42578-1.8633-0.57812-2.3672-0.32031-0.85156-0.39062-0.85156-1.3281-0.23047-0.92969 0.62109-0.96875 0.58203-0.96875-0.15625 0-0.42578 0.73438-1.8633 1.668-3.2266 2.2891-3.3438 2.4062-3.7695 1.3984-4.8477-0.77344-0.81641-0.89453-0.85547-2.3672-0.3125-2.1328 0.73438-2.2109 0.69922-0.66016-0.35156 2.2617-1.5234 1.5156-2.6875-1.082-1.7148z"/>
  <path d="m307.31 215.91c-0.69922 1.2812-1.8633 3.1016-2.5977 4.0781-0.73828 0.96875-1.3203 1.8984-1.3203 2.0938 0 0.58203 2.6055 2.3672 5.7891 3.9648 4.1172 2.0625 5.125 2.2109 6.7148 1.0859 1.3945-0.96875 2.6055-2.2891 2.6445-2.793 0-0.39063-3.8086-5.2812-5.9805-7.6484-1.5195-1.7148-3.2188-3.1094-3.7617-3.1094-0.12891 0-0.83594 1.0469-1.4883 2.3281z"/>
  <path d="m388.31 218.9c-1.7188 0.70703-2.0234 1.5195-2.0234 5.168 0.042969 2.3672 0.42578 5.3984 0.73828 5.7461 0.078124 0.078125 1.125 0.23047 2.3359 0.34766 4.3438 0.46484 5.2344-1.0078 4.5039-7.0664l-0.50781-4-1.3164-0.27344c-0.73828-0.11719-1.5508-0.30859-1.7852-0.38672-0.28125-0.078125-1.1328 0.11719-1.9453 0.46484z"/>
  <path d="m356.78 254.43c-0.15625 1.125-0.042969 3.8789 0.19531 6.1367 0.26953 2.25 0.46094 5.2812 0.46094 6.7188 0 2.4062-0.15625 2.832-1.625 5.2031-0.85156 1.3945-1.5195 2.793-1.3984 3.0625 0.3125 0.77734 1.707 0.66016 3.6836-0.26953 2.0625-0.93359 2.4062-0.69922 3.4141 2.1719 0.39844 1.0859 0.85156 2.0234 1.0117 2.1016 0.93359 0.42578 1.9023-0.50781 3.1484-2.9922 0.78516-1.5195 1.7461-2.9531 2.1328-3.1875 1.4375-0.73828 1.9805-1.5977 1.9805-3.0625 0-0.97266 0.26953-1.7148 0.77734-2.1797 0.73438-0.69922 0.77344-0.66016 0.77344 0.11719 0 0.62109 0.32422 0.85156 1.5469 1.0547 1.4062 0.23438 1.5625 0.39062 1.4844 1.2812-0.11719 0.96875 0 1.0547 3.1523 1.7852l3.2891 0.73828 1.2539-1.5195c2.3242-2.7539 2.4062-3.1484 1.0547-4.4648l-1.1758-1.2031-1.668 0.85156c-1.7461 0.89453-4.082 0.81641-3.1406-0.11719 0.23047-0.23438 0.42188-0.66016 0.42188-0.97266 0-1.668-4.8438-5.5898-9.9805-7.9961-1.3164-0.62109-2.3203-1.2422-2.2461-1.3594 0.078125-0.15625-0.15234-0.27344-0.50781-0.27344-0.34766 0-1.0469-0.15234-1.5117-0.30859-0.81641-0.26953-0.89453-0.15625-0.89453 0.89062 0 1.9414-0.58203 1.668-1.7461-0.77734-1.8672-3.9102-3.5-4.4922-3.8867-1.4297z"/>
  <path d="m375.92 278.85c-1.5117 0.96875-1.9766 1.0859-2.6484 0.73828-0.65625-0.34766-0.83984-0.27344-1.1211 0.46484-0.19141 0.50391-0.69922 1.668-1.0859 2.6445-0.81641 1.8633-0.65625 4.0781 0.35156 4.7383 0.62109 0.42578 2.5273 0.078125 3.6445-0.66016 1.1211-0.73438 4.4688-5.7852 4.2773-6.4453-0.085938-0.3125-0.27344-1.0117-0.38672-1.6367-0.30469-1.3164-0.73828-1.2812-3.0312 0.15625z"/>
  <path d="m389 281.92c-0.34766 0.38672-0.73828 1.4766-0.85156 2.4062-0.15234 1.3945 0.039062 1.9805 1.125 3.6133 1.5859 2.3672 2.6445 2.5664 3.1484 0.58203 0.58203-2.2109 0.15625-6.2109-0.69922-6.832-1.0156-0.74609-1.9062-0.66797-2.7227 0.23047z"/>
  <path d="m103.89 309.1c-0.69922 0.66016-1.3984 1.9102-1.6289 2.7617-0.46484 1.668-0.58203 6.2891-0.23437 6.9062 0.11719 0.19531 0 0.42578-0.3125 0.54297-0.42578 0.15234-0.50391 1.0547-0.38672 4.043 0.19141 6.332 0.8125 8.7031 2.1719 8.3438 0.54297-0.11719 0.69922-0.38672 0.54297-1.0078-0.50391-1.6367-0.66016-5.9023-0.34766-7.4141 0.23438-1.0859 0.54297-1.5508 1.0469-1.5508 0.77344 0 1.5508-1.1641 1.2031-1.7539-0.11719-0.23438-0.81641-0.38672-1.4766-0.42188-1.0547 0-1.125-0.089844-0.46484-0.35156 0.46484-0.15625 1.0469-0.58203 1.3164-0.92969 0.27344-0.35156 0.69922-0.50781 0.97266-0.35156 0.23438 0.11719 0.30859 0.11719 0.15234-0.039062-0.15234-0.19141 0.85156-1.2812 2.2578-2.4453 1.3945-1.1719 2.4453-2.3281 2.3672-2.5664-0.078125-0.23438-0.69922-0.54297-1.3594-0.69922-0.96875-0.19141-1.2812-0.11719-1.4336 0.42578-0.35156 1.125-1.6367 2.0273-2.5977 1.8203-0.81641-0.15234-0.77734-0.18359 0.34766-0.46094 0.69922-0.15625 1.3594-0.58203 1.4727-0.93359 0.27344-0.92969-1.1641-4.8555-1.8633-5.0117-0.3125-0.066406-1.0859 0.42578-1.7461 1.0938z"/>
  <path d="m554.65 324.9c-1.7539 0.85547-3.0703 2.9922-3.5742 5.7461-0.50781 2.7109-0.23438 5.668 1.0547 12.113 0.5 2.6055 0.92578 5.9805 0.92578 7.5 0 2.9062 0.42578 4.2656 1.3594 4.2656 0.92969 0 1.0078 0.66797 0.34766 2.6836-0.34766 1.0859-0.53906 2.6836-0.46484 3.5391 0.11719 1.3945 0.039063 1.5508-0.73438 1.5508-0.81641 0-1.668 0.96875-1.668 1.8984 0 0.77734 1.8594 0.42578 3.1016-0.58203 0.66016-0.58203 1.3281-0.92578 1.4375-0.77344 0.11719 0.11719-0.085938 1.3945-0.46875 2.832-0.34766 1.4766-0.73438 3.0312-0.85156 3.5352-0.30859 1.2812 1.0117 3.5742 2.0156 3.5742 1.0547 0 3.5391-1.5859 7.1836-4.6211 2.0547-1.668 3.5781-2.5977 5.2031-3.1016 2.1797-0.66016 2.4453-0.89453 4.2773-3.5781 2.0156-2.9453 3.0703-3.5742 3.2578-2.0117 0.11719 0.69531 0.37891 0.89062 1.2812 0.89062 0.96875 0 1.2422-0.28125 2.0117-1.8242 0.85547-1.7852 1.9492-2.832 2.4531-2.3281 0.15625 0.11719-0.38672 2.0547-1.1641 4.2734-0.77344 2.2188-1.3984 4.2266-1.3984 4.4688 0 0.26953 0.58984 0.46484 1.3555 0.46484 1.0938 0 1.5195-0.23047 2.2969-1.4375 0.85156-1.25 0.98047-1.707 0.77734-3.5742-0.19531-1.7148-0.039063-2.6484 0.62109-4.3164 0.62109-1.6289 0.77734-2.5273 0.58203-3.9609-0.15625-1.0547-0.11719-1.8594 0.074218-1.8594 0.69922 0 2.418 2.2109 4.0039 5.125 1.9805 3.6836 2.9961 4.082 3.1875 1.2031 0.074219-0.97266 0.30859-1.8594 0.50391-1.9102 0.23047-0.078125 0.81641 0.75 1.3164 1.8242 1.1602 2.3672 1.8633 2.3672 3.0703-0.039063 1.0547-2.0625 0.93359-3.7305-0.46094-6.7969-1.0195-2.2461-3.1523-4.8555-3.9648-4.8555-0.65625 0-0.69922 0.4375-0.11719 1.7188 0.38672 0.77734 0.35156 1.1641-0.19141 1.9805-0.34766 0.54297-0.81641 0.88672-0.96875 0.77734-0.19531-0.085937-0.46875-1.3203-0.62109-2.6836-0.11719-1.3984-0.38672-2.9922-0.54688-3.5352l-0.26172-1.0547-0.75 0.85547c-0.65625 0.73438-0.77344 1.3555-0.69531 4.1094 0.039062 1.7812-0.078125 3.2656-0.23047 3.2656-0.46875 0-1.5977-1.7852-1.5977-2.5312 0-0.37891-0.37891-0.58203-1.1602-0.58203-0.62891 0-1.1641-0.11719-1.1641-0.30859 0-0.15625 0.53906-1.1641 1.1641-2.2188 1.2812-2.1797 1.5469-4.8086 0.57812-5.6328-0.69531-0.58203-0.57812-0.73828-2.0117 1.9414-1.3945 2.4805-1.9805 2.8008-2.2891 1.25-0.19141-0.92969-0.38672-1.0859-1.1719-0.92969-0.92969 0.15234-0.92969 0.11719-0.92969-2.6094v-2.7539h-1.5195c-2.3281 0-3.5352 0.62109-5.5508 2.7148-0.97266 1.0938-1.707 1.9414-1.625 1.9414 0.11719 0-0.125 0.42969-0.46875 0.97266-0.77344 1.1641-1.3203 1.2422-1.3203 0.19141 0-1.0547-0.42578-0.96875-2.1328 0.38672-1.668 1.3164-1.8633 1.3594-2.5273 0.58203-0.27344-0.3125-0.73828-0.58203-1.0117-0.58203-0.69531 0-0.65625-0.38672 0.039062-1.3164 0.66016-0.85547 0.78516-2.8008 0.23438-3.1484-0.19141-0.11719-0.81641 0.23438-1.3555 0.77344-0.54688 0.54688-1.4375 0.97266-1.9805 0.97266-1.2383 0-1.8594 1.4453-1.668 3.7617 0.085938 0.93359 0 1.668-0.11719 1.668-0.35156 0-1.7461-3.9531-2.2852-6.4727-0.54688-2.4062-0.62109-5.4375-0.20312-7.9258 0.32031-1.9414-0.15234-2.7109-1.1641-1.9023-0.69531 0.58203-0.69531 0.66016 0-1.9414 0.32031-1.1602 0.58203-2.1719 0.58203-2.25-0.011719-0.22266-0.71094 0.007812-1.9102 0.59766z"/>
  <path d="m407.33 338.1c-0.11328 0.19531-0.3125 0.89063-0.46484 1.6289-0.26953 1.25-0.3125 1.2812-0.81641 0.62109-0.50391-0.70703-0.54297-0.65625-0.77734 0.039063-0.15234 0.38672-0.58203 1.5898-1.0078 2.5977-0.38672 1.0117-0.70703 2.0234-0.70703 2.2188 0 0.65625 1.0117 0.42969 1.7539-0.39062 0.58203-0.61719 0.81641-0.69531 1.2812-0.30078 0.46094 0.38672 0.73438 0.27344 1.6289-0.81641 0.89453-1.0469 1.0547-1.5508 0.89453-2.7109-0.41797-2.6211-1.2031-3.8633-1.7852-2.8867z"/>
  <path d="m110.64 353.63c-0.3125 0.96875 0.074219 2.918 0.69922 3.5352 0.27344 0.27344 0.85547 0.54688 1.3203 0.58203 0.93359 0.042969 1.2031 0.66016 0.3125 0.66016-0.69922 0-2.1719 1.8242-2.1719 2.7227 0 0.34766 0.42578 0.85156 0.89062 1.0469 1.0078 0.46484 3.5742 4.082 4.1992 5.9453 0.30859 0.88672 0.26953 1.3164-0.19531 2.0156-0.92969 1.3203-0.77734 2.5195 0.3125 2.7891 0.81641 0.20312 1.0078 0.58984 1.3594 2.4883 0.96875 5.0078 0.92969 4.9375 2.0938 4.8164 1.0078-0.11719 1.0469-0.035156 1.0469 1.7852 0 2.1016 0.81641 3.4883 3.9258 6.7461 2.3281 2.4141 3.1797 2.8398 4.3867 2.0547 0.89453-0.57812 0.89453-0.6875 0.73828-4.9688l-0.19531-4.3438-1.9414-1.9766-1.9414-2.0273-0.19531-4.3789c-0.19531-4.1211-0.26953-4.5547-1.3594-6.0586-0.62109-0.92969-1.0078-1.8633-0.85156-2.1328 0.15625-0.24219 0.11719-0.32031-0.15234-0.20312-0.50781 0.35156-3.3047-3.4883-2.9531-4.0781 0.15234-0.23438 0.11719-0.30859-0.11719-0.19141-0.23437 0.15625-1.3984-1.1641-2.6836-2.918-1.668-2.2969-2.6758-3.3438-3.8086-3.8398-1.9805-0.88672-2.4453-0.88672-2.7188-0.070313z"/>
  <path d="m523.55 366.84c-2.375 0.11328-3.4961 0.37891-6.0977 1.5859-1.7461 0.77734-3.1758 1.6367-3.2188 1.8242 0 0.46484 10.328 1.7852 13.707 1.7539 2.5195 0 5.8633-1.2031 6.3281-2.2578 0.92969-2.1719 0.77734-2.2852-2.6445-2.5586-1.7852-0.15234-3.6445-0.30859-4.1953-0.38672-0.54297-0.046875-2.2891-0.046875-3.8789 0.039063z"/>
  <path d="m552.56 383.14c-0.11719 0.19141-0.38672 1.3555-0.62891 2.6055-1.1641 6.332 0.3125 12.773 3.1094 13.43 1.3555 0.35156 4.6992-2.6367 6.6758-5.9766 1.2891-2.1719 1.4844-2.7617 1.0859-3.3047-0.22266-0.33984-0.54297-0.93359-0.65625-1.3164-0.15625-0.35156-0.27344-0.66016-0.32031-0.66016 0 0-1.1602 0.35156-2.5586 0.78516-1.3945 0.42578-2.5586 0.77734-2.6055 0.77734-0.078125 0-0.11719-0.73828-0.11719-1.6758 0-1.2422-0.3125-2.0547-1.2031-3.3047-1.0742-1.4727-2.3516-2.0977-2.7812-1.3594z"/>
  <path d="m545.07 394.56c-0.93359 1.0547-2.6758 1.9414-7.1836 3.6133l-3.6133 1.3555-1.0859-1.0078c-0.58203-0.58203-1.1641-1.3594-1.3164-1.7461-0.11719-0.38672-0.42578-0.69922-0.73828-0.69922-0.58984 0-1.2422 3.8789-0.81641 4.5742 0.39062 0.66016 3.9219 1.2422 7.2188 1.2422 2.7148 0 3.1484-0.074219 3.4961-0.81641 0.42578-0.73438 0.50391-0.73438 1.1328-0.15234 0.54297 0.46875 1.1211 0.54297 2.2852 0.35156 1.7148-0.26953 2.4453-1.25 1.4375-1.8203-0.69922-0.38672-0.54687-1.8711 0.42969-3.6914 1.043-2.0156 0.22656-2.7969-1.2461-1.2031z"/>
  <path d="m412.11 451.6c-0.54297 0.15234-1.8594 0.30859-2.9453 0.35156-2.1016 0.039063-4.4258 0.66016-4.4258 1.1992 0 0.19531 1.2773 0.54688 2.8281 0.77734 1.5195 0.27344 3.8516 0.69922 5.1289 0.98047 2.793 0.58203 3.2656 0.30859 3.4141-1.9492l0.078125-1.5469-1.5508-0.085937c-0.85547-0.039063-1.9805 0.082031-2.5273 0.27344z"/>
  <use x="70" y="644" xlink:href="#u"/>
  <use x="90.550781" y="644" xlink:href="#b"/>
  <use x="104.359375" y="644" xlink:href="#a"/>
  <use x="123.347656" y="644" xlink:href="#f"/>
  <use x="142.242187" y="644" xlink:href="#d"/>
  <use x="155.625" y="644" xlink:href="#a"/>
  <use x="174.617187" y="644" xlink:href="#k"/>
  <use x="204.40625" y="644" xlink:href="#j"/>
  <use x="224.453125" y="644" xlink:href="#i"/>
  <use x="252.453125" y="644" xlink:href="#h"/>
  <use x="272.726562" y="644" xlink:href="#c"/>
  <use x="291.960937" y="644" xlink:href="#g"/>
  <use x="311.898438" y="644" xlink:href="#f"/>
  <use x="330.789062" y="644" xlink:href="#e"/>
  <use x="350.726562" y="644" xlink:href="#e"/>
  <use x="380.40625" y="644" xlink:href="#t"/>
  <use x="401.75" y="644" xlink:href="#a"/>
  <use x="420.738281" y="644" xlink:href="#b"/>
  <use x="434.546875" y="644" xlink:href="#s"/>
  <use x="454.589844" y="644" xlink:href="#a"/>
  <use x="473.578125" y="644" xlink:href="#b"/>
  <use x="70" y="672" xlink:href="#r"/>
  <use x="82.183594" y="672" xlink:href="#b"/>
  <use x="95.992187" y="672" xlink:href="#c"/>
  <use x="115.226562" y="672" xlink:href="#q"/>
  <use x="154.148438" y="672" xlink:href="#d"/>
  <use x="167.535156" y="672" xlink:href="#g"/>
  <use x="187.46875" y="672" xlink:href="#a"/>
  <use x="216.207031" y="672" xlink:href="#p"/>
  <use x="239.640625" y="672" xlink:href="#c"/>
  <use x="258.875" y="672" xlink:href="#o"/>
  <use x="278.8125" y="672" xlink:href="#e"/>
  <use x="308.492187" y="672" xlink:href="#n"/>
  <use x="329.015625" y="672" xlink:href="#b"/>
  <use x="342.820312" y="672" xlink:href="#c"/>
  <use x="362.058594" y="672" xlink:href="#m"/>
  <use x="371.65625" y="672" xlink:href="#a"/>
  <use x="390.648437" y="672" xlink:href="#l"/>
  <use x="407.242187" y="672" xlink:href="#d"/>
 </g>
</svg>
