<?xml version="1.0" encoding="UTF-8"?>
<svg version="1.1" width="500pt" height="500pt" viewBox="0 0 700 600" fill="#d90429" xmlns="http://www.w3.org/2000/svg" xmlns:xlink="http://www.w3.org/1999/xlink">
 <g>
  <path d="m591.36 352.24-8.3984-5.0391c-11.762-7.2812-15.68-23.52-9.5195-35.281l22.398-43.121c6.1602-12.32 0.55859-21.84-13.441-21.281l-35.281 1.1211c-13.441 0.55859-29.121-9.5195-34.16-22.398l-3.9219-10.641c-5.0391-12.879-17.922-16.238-28.559-7.2812l-38.641 31.359c-10.641 8.3984-16.801 5.0391-13.441-8.3984l24.641-103.04c3.3594-13.441-5.0391-21.84-18.48-19.039l-17.914 2.8008c-13.441 2.8008-29.68-5.0391-35.281-17.359l-14-27.441c-6.1602-12.32-16.238-12.32-22.398 0l-14 27.441c-6.1602 12.32-22.398 20.16-35.84 17.359l-17.922-3.9219c-13.441-2.8008-21.84 6.1602-18.48 19.039l24.082 103.6c3.3594 13.441-2.8008 17.359-13.441 8.3984l-38.641-31.359c-10.641-8.3984-23.52-5.0391-28.559 7.2812l-3.9219 10.641c-5.0391 12.879-20.16 22.961-34.16 22.398l-35.281-1.1211c-13.438 0.003907-19.598 9.5234-13.438 21.844l22.398 43.121c6.1602 12.32 2.2383 28-9.5195 35.281l-8.3984 5.0391c-11.762 7.2812-11.199 17.922 1.1211 24.078l80.641 39.199c12.32 6.1602 19.602 18.48 16.801 27.441-3.3594 8.9609 5.6016 15.121 19.039 13.441l93.52-10.641c3.3594-0.55859 7.2812-0.55859 11.762-1.1211v45.359c0 16.238 25.199 16.238 25.199 0v-45.359c4.4805 0 8.9609 0.55859 12.879 1.1211l92.398 10.637c13.441 1.6797 22.398-4.4805 19.039-13.441-3.3594-8.9609 4.4805-21.281 16.801-27.441l80.641-39.199c12.32-5.5977 12.879-16.797 1.6797-24.078z"/>
  <use x="70" y="644" xlink:href="#v"/>
  <use x="90.550781" y="644" xlink:href="#b"/>
  <use x="104.359375" y="644" xlink:href="#a"/>
  <use x="123.347656" y="644" xlink:href="#k"/>
  <use x="142.242188" y="644" xlink:href="#c"/>
  <use x="155.628906" y="644" xlink:href="#a"/>
  <use x="174.617188" y="644" xlink:href="#j"/>
  <use x="204.410156" y="644" xlink:href="#i"/>
  <use x="224.453125" y="644" xlink:href="#f"/>
  <use x="252.453125" y="644" xlink:href="#h"/>
  <use x="271.578125" y="644" xlink:href="#g"/>
  <use x="300.753906" y="644" xlink:href="#u"/>
  <use x="310.351562" y="644" xlink:href="#e"/>
  <use x="319.949219" y="644" xlink:href="#f"/>
  <use x="347.949219" y="644" xlink:href="#t"/>
  <use x="369.648438" y="644" xlink:href="#a"/>
  <use x="388.636719" y="644" xlink:href="#e"/>
  <use x="398.234375" y="644" xlink:href="#e"/>
  <use x="407.832031" y="644" xlink:href="#a"/>
  <use x="426.820312" y="644" xlink:href="#b"/>
  <use x="70" y="672" xlink:href="#s"/>
  <use x="82.183594" y="672" xlink:href="#b"/>
  <use x="95.992188" y="672" xlink:href="#d"/>
  <use x="115.226562" y="672" xlink:href="#g"/>
  <use x="154.152344" y="672" xlink:href="#c"/>
  <use x="167.535156" y="672" xlink:href="#r"/>
  <use x="187.46875" y="672" xlink:href="#a"/>
  <use x="216.207031" y="672" xlink:href="#q"/>
  <use x="239.640625" y="672" xlink:href="#d"/>
  <use x="258.878906" y="672" xlink:href="#p"/>
  <use x="278.8125" y="672" xlink:href="#o"/>
  <use x="308.492188" y="672" xlink:href="#n"/>
  <use x="329.015625" y="672" xlink:href="#b"/>
  <use x="342.820312" y="672" xlink:href="#d"/>
  <use x="362.058594" y="672" xlink:href="#m"/>
  <use x="371.65625" y="672" xlink:href="#a"/>
  <use x="390.648438" y="672" xlink:href="#l"/>
  <use x="407.242188" y="672" xlink:href="#c"/>
 </g>
</svg>
